<svg viewBox="0 0 372 120" xmlns="http://www.w3.org/2000/svg" xmlns:xlink="http://www.w3.org/1999/xlink"><defs><path id="a" d="M0 .1h146.5v91.7H0z"/><path id="c" d="M0 119.9h371.7V.6H0z"/></defs><g fill="none" fill-rule="evenodd"><path d="M83.6 74.5c-.8 2-1.1 4-1.2 5.8 0 .4-.5.6-.7.3A42.4 42.4 0 0167.5 65a37.2 37.2 0 0015 19.6c.3 1.7.8 3.1 1.3 4.4.2.5-.4 1-1 .7a44 44 0 01-20.3-39.9v.3c.8 3.4 3.7 7.8 8.7 13.1 4.7 5 10.1 9.1 12.2 10.7.2.1.3.4.2.6M90.4 37.3s-1.2 5.5-4.4 9.8l-.3.3c-3.9 2.5-8.3 4.4-9.8 3-1.2-1.2-1.2-5-1.2-8.5 0-3.7 0-7-1.4-8.4l2.1-.8c3.2-1 4.4-3.5 6-6.8a82.5 82.5 0 013.2-6.2c1-1.7 2.5-3.3 4.5-4.4a8.4 8.4 0 006 13.6h.6a16 16 0 00-5.3 8.4" fill="#0081C9"/><path d="M78.2 53.3c-3 2-6 4-7.2 6-.3.3-.8.4-1.1 0-3.3-3.8-5.3-7-5.8-9.5-1.4-6.8.7-11.8 6.4-15 .4-.2 1-.5 1.4-.3 1.1.6 1.1 4.4 1.1 7.4 0 4.1 0 8 1.8 9.7.6.5 1.4.8 2.3.9 1 0 2-.2 3.2-.6l-2.1 1.4M98 19.8a2 2 0 11-3.9-.3 2 2 0 013.9.3m10.8 1.8a16.8 16.8 0 01-5.5-4.2c-1.5-1.7-2.9-3-5.5-3.5a15 15 0 00-1.7-.2 6.8 6.8 0 10.3 13.5c1.3 0 2.5-.6 3.7-1.1a29 29 0 018.2-2.7c1.4-.2 1.5-1.3.5-1.8" fill="#53C8E7"/><path d="M60.3 37.2l-.9.2a33.5 33.5 0 01-11.2 2l6.8-11-11.5 10.2a69 69 0 01-17.6-5.3l13.3-11.7L21 29.9A28.6 28.6 0 019.4 18.5l14.9-5.8h-18l-.3-.9-3.4-8.5c-.1-.3.2-.7.5-.6L49 11.4c.4 0 .9.2 1.3.4L73.5 23l1 .4c2.2 1 3.4 2.2 3.6 3.5v1c0 .3 0 .5-.3.6l-.8-.3a76.8 76.8 0 00-34.5-6.4s18 1 32.2 8.2c.5.2 1 .4 1 .7-.1.2-.3.4-.8.5-2 .6-3.8 1.4-5.4 2.3a15 15 0 00-5.6 5.3l-.5-1c-.7-.8-1.8-1-3.1-.6" fill="#00AD8D"/><g transform="translate(0 .4)"><mask id="b" fill="#fff"><use xlink:href="#a"/></mask><path d="M90.4 36.9s-1.2 5.5-4.4 9.8l-.3.3c-3.9 2.5-8.3 4.3-9.8 3-1.2-1.2-1.2-5.1-1.2-8.5 0-3.8 0-7-1.4-8.4l2.1-.8c3.2-1 4.4-3.5 6-6.8a81 81 0 013.2-6.2c1-1.7 2.5-3.3 4.5-4.4a8.3 8.3 0 006 13.6h.6a16 16 0 00-5.3 8.4m-12.2 16c-3 2-6 3.9-7.2 6-.3.3-.8.3-1.1 0-3.3-3.8-5.3-7-5.8-9.6-1.4-6.7.7-11.7 6.4-15 .4-.2 1-.5 1.4-.3 1.1.6 1.1 4.4 1.1 7.5 0 4 0 8 1.8 9.6.6.6 1.4.9 2.3 1 1 0 2-.2 3.2-.6L78.2 53m5.2 20.5c.2.2.3.4.2.7-.8 2-1.1 4-1.2 5.8 0 .3-.5.5-.7.3a42.4 42.4 0 01-14.2-15.7 37.2 37.2 0 0015 19.6c.3 1.7.8 3.2 1.3 4.4.2.6-.4 1-1 .7a44 44 0 01-20.3-39.8v.3c.8 3.4 3.7 7.8 8.7 13 4.7 5 10.1 9.2 12.2 10.7M60.3 36.8l-.9.1A33.3 33.3 0 0148.2 39L55 28 43.5 38.2a69 69 0 01-17.6-5.3l13.3-11.8L21 29.4A28.6 28.6 0 019.4 18.1l14.9-5.8h-18l-.3-.9L2.6 3c-.1-.4.2-.7.5-.6L49 10.9l1.3.5 23.3 11.1 1 .4c2.2 1 3.4 2.2 3.6 3.6v1c0 .2 0 .4-.3.6l-.8-.3a76.8 76.8 0 00-34.5-6.4s18 1 32.2 8.1c.5.3 1 .4 1 .7-.1.3-.3.4-.8.6-2 .6-3.8 1.3-5.4 2.2v.1a15 15 0 00-5.6 5.3l-.5-1.1c-.7-.8-1.8-1-3.1-.5M96 13.3h.1l1.6.1c2.6.5 4 1.9 5.5 3.5 1.4 1.5 3 3 5.5 4.2 1 .6 1 1.7-.5 1.9a29 29 0 00-8.2 2.6 10.7 10.7 0 01-4.8 1.2 6.8 6.8 0 11.8-13.5m14.6 11a98 98 0 0134.8 3.5h.1c.5 0 .9-.3.9-.7 0-.4-.2-.7-.5-.8l-1.5-.5c-3.4-1.1-14-4.4-32.5-5.5a7 7 0 01-2.2-.5c-2.5-1-4-2.5-5.3-4-1.7-1.8-3.3-3.4-6.4-4a14.2 14.2 0 00-15 6.6l-1.7 3.3s-.8 2.2-2 1.7L50.6 9.8c-.4-.2-.7-.3-1.1-.3L.6 0C.2.1-.1.4 0 .8L4.5 12l.6 1.3.4.6h10.2L7 17.2l.5.9c2.6 4.5 7 10.4 13.2 13l.3.1 9-4.1-7 6.3 1 .5c.6.2 12.6 5.6 19.7 6h.3l3.8-3.4-2.5 4 1.4.1a37.5 37.5 0 0013.1-2.1l.8-.2c.6-.1 1.3-.2 1.6 0 .7.9-.5 4-.7 5.7a45.6 45.6 0 0022.1 47.5l.4.2c1.2.4 2.4-.7 2.1-1.9a19.2 19.2 0 01-.8-15.6c.2-.7 0-1.4-.5-1.8-.2 0-.3-.2-.4-.3-2-1.5-7.4-5.6-12-10.4l-.4-.5c-.5-2 3.3-4.5 7-7 3.3-2.1 6.8-4.3 8.6-7 3.2-4.4 4.3-9.8 4.4-10 0-.5 2.3-11 18.7-13" fill="#000" mask="url(#b)"/></g><path d="M96 21.6c1 0 1.9-.8 2-1.8a2 2 0 10-2 1.8M99.2 111.1c-.2.2-.8.2-1.5.2h-2.5V108h2.5c1.2 0 2.2.2 2.2 1.7 0 1-.5 1.3-.7 1.4m3 4c-.2-1.4-.6-2.1-1.4-2.6l.8-.5c.6-.7 1-1.6 1-2.6 0-1.3-.6-2.4-1.6-3-1-.7-2.6-.7-3.3-.7h-5v13.9h2.5v-6h2c2 0 2.3.5 2.4 2.2v.3c.2 1 .4 2.4.7 3.2v.3h2.8l-.2-.5c-.5-1.4-.6-2.5-.8-4" fill="#000"/><mask id="d" fill="#fff"><use xlink:href="#c"/></mask><path fill="#000" mask="url(#d)" d="M107 119.6h2.7v-3h-2.8zM123 112.5c-.8-.5-1.1-.6-4-1.4h-.3c-1.7-.4-2.1-.8-2.1-1.6 0-1.1 1-1.8 2.5-1.8 2 0 2.4 1 2.4 1.7v.3H124.2v-.4c0-.6-.1-1.6-1-2.5-1-1.2-3-1.4-4-1.4-2.6 0-5.3 1.3-5.3 4.2 0 1.3.5 2.3 1.5 3 .8.4 1.7.7 3.7 1.2 2 .4 2.8.7 2.8 1.8 0 .5-.2 2-2.7 2-2.7 0-2.8-1.4-2.8-2.3v-.3h-2.7v.4c0 .5 0 1.8.9 2.9 1 1.4 3.2 1.6 4.3 1.6 3.4 0 5.6-1.8 5.6-4.5 0-1.3-.5-2.3-1.5-3M128.5 119.6h2.8v-3h-2.8zM148 115.5l-2.7-9.8h-2.9l-2.8 9.8-2.6-9.8h-2.7l4 13.9h2.5l3-10.2 2.7 10.2h2.6l4.1-14h-2.5zM159 114l2-5 1.8 5H159zm.8-8.3l-5.9 13.9h2.7l1.5-3.4h5.6l1.4 3.4h2.8l-5.7-14h-2.4zM173.6 105.7H171v13.9h8.7v-2.4h-6.1zM192 112.5c-.8-.5-1.2-.6-4-1.4h-.4c-1.6-.4-2-.8-2-1.6 0-1.1.9-1.8 2.5-1.8 2 0 2.3 1 2.3 1.7v.3H193.2v-.4c0-.6-.1-1.6-1-2.5-1-1.2-2.9-1.4-3.9-1.4-2.7 0-5.4 1.3-5.4 4.2 0 1.3.5 2.3 1.6 3 .7.4 1.6.7 3.7 1.2 1.9.4 2.7.7 2.7 1.8 0 .5-.2 2-2.7 2-2.7 0-2.8-1.4-2.8-2.3v-.3h-2.7v.4c0 .5 0 1.8.9 2.9 1.1 1.4 3.2 1.6 4.4 1.6 3.4 0 5.5-1.8 5.5-4.5 0-1.3-.5-2.3-1.4-3M205.6 111.3h-5.5v-5.6h-2.5v13.9h2.5v-6h5.5v6h2.6v-14h-2.6zM222.8 105.7h-2.5v13.9h8.6v-2.4h-6zM235.9 114l2-5 1.8 5H236zm3.3-8.3h-2.5l-5.9 13.9h2.7l1.5-3.4h5.6l1.4 3.4h2.8l-5.5-13.7-.1-.2zM257 115.6l-6-10h-3v14h2.4v-10.2l6 10.2h3v-14H257zM271.4 116.7c-.8.6-2 .6-3.2.6h-1.4V108h1.8c1.7 0 2.5.3 3.2 1 1 1.2 1.2 3.1 1.2 4 0 1.7-.6 3-1.6 3.8m-3-11h-4.2v13.9h4c2 0 3.8 0 5.1-1.2.6-.4 2.4-2.1 2.4-5.7 0-2-.6-3.9-1.7-5.2-1.6-1.8-3.8-1.8-5.6-1.8M288.3 112.5c-.8-.5-1.2-.6-4-1.4h-.4c-1.6-.4-2-.8-2-1.6 0-1.1.9-1.8 2.5-1.8 2 0 2.3 1 2.3 1.7v.3H289.5v-.5c0-.5-.1-1.5-.9-2.4-1.1-1.2-3-1.4-4-1.4-2.7 0-5.4 1.3-5.4 4.2 0 1.3.6 2.3 1.6 3 .7.4 1.6.7 3.7 1.2 1.9.4 2.7.7 2.7 1.8 0 .5-.2 2-2.7 2-2.7 0-2.8-1.4-2.8-2.3v-.3h-2.7v.4c0 .5 0 1.8.9 2.9 1.1 1.4 3.2 1.6 4.4 1.6 3.4 0 5.5-1.8 5.5-4.5 0-1.3-.5-2.3-1.4-3M299.3 107.7c2 0 2.4 1.1 2.5 2v.3h2.7v-.4c-.2-3-2.8-4.1-5-4.1-4.6 0-6.2 3.8-6.2 7.3 0 1.6.4 7 5.9 7 2.2 0 5-1 5.3-4v-.4h-2.7v.3c-.1.2-.2.7-.6 1.2-.5.4-1 .6-1.9.6-2.2 0-3.3-1.6-3.3-4.7 0-2.3.6-5 3.3-5M311.6 114l2-5 1.9 5h-4zm3.3-8.3h-2.5l-5.8 13.9h2.7l1.4-3.4h5.6l1.4 3.4h2.8l-5.5-13.7-.1-.2zM328 111.5H326v-3.6h2.2c1.2 0 2.3.1 2.3 1.7 0 1.5-1 1.9-2.7 1.9m.4-5.8h-4.7v13.9h2.5v-5.9h1.8c2.5 0 3.5-.4 4.2-1.2.8-.8 1.2-1.7 1.2-2.8a4 4 0 00-1-2.8c-1.1-1.1-2.3-1.2-4-1.2M336.9 119.6h2.6v-14h-2.6zM352.9 115.6l-5.9-10H344v14h2.4v-10.2l6.1 10.2h3v-14h-2.5zM365.3 114.1h3v3.2c-.4.2-1.3.4-2.4.4-1.5 0-2.6-.4-3.2-1.2-.9-1-1.2-2.6-1.2-3.9a6 6 0 011.3-4c.6-.6 1.5-1 2.7-1 1.5 0 2.4.7 2.6 1.8v.3h2.8v-.4c0-.5-.1-1.4-1-2.3a5.6 5.6 0 00-4.2-1.5 7 7 0 00-3.8 1c-2.8 1.8-3 5.3-3 6.3 0 2.2.7 4 2 5.3 1 1.2 2.7 1.8 5 1.8s4.1-.6 4.8-.9h.2v-7.2h-5.6v2.3zM111.1 50.7c0 2.4.8 5.5 2.3 9l-.3.1a7 7 0 01-5.5-2.3 9.2 9.2 0 01-2.2-6.3c0-3.3 1-5.8 3.3-7.8a16 16 0 017.6-3.3c-3.5 3-5.2 6.5-5.2 10.6m10.6 16.8c0-2.4-.6-4.9-1.8-7.5 3-2.3 4.4-5 4.4-7.8 0-1.4-.4-2.6-1.3-3.5-.8-.8-2-1.3-3.3-1.3-.8 0-1.8.3-3 .8l-.5.2.3 2 .6-.1 1.3-.2c.6 0 1 .3 1.6.9.5.6.8 1.4.8 2.4 0 1.7-.7 3-2 4.2a23.8 23.8 0 01-3.5-10c0-1.7.6-3.5 1.8-5 1.3-1.6 3.1-2.8 5.4-3.5l.7-.2-.7-1.9h-.4c-6.8 0-12.2 1.6-16 4.5-3.9 3-5.9 6.6-5.8 10.6 0 3 1.1 5.6 3.3 7.5 2.2 2 5 2.9 8.5 2.9h.1c1 0 1.8 0 2.6-.2 1.4 2.7 2 5.1 2 7 0 2.9-.9 5.3-2.8 7.3-2 2-4.4 3-7.3 3a9 9 0 01-5.8-2 5.5 5.5 0 01-2.4-4.4c0-.7.1-1.2.4-1.6l.1-.2-.4-1.4H98c-2.1.3-3.8.9-5 1.8l-.4.2.1.4c.7 3.2 2.2 5.6 4.5 7.3 2.3 1.7 5.2 2.5 8.6 2.5h.1c4.5 0 8.3-1.5 11.3-4.4 3-3 4.5-6.4 4.5-10.3M134.8 69l.8-.3h.2c0 .1.2.4.2 1v7.5c0 2 .3 3.3.8 4 .6.6 1.3.9 2.3.9 2.6 0 5.3-2 8-6l.3-.6-2-1.6-.3.5c-2.7 3.7-3.8 4-4.2 4l-.2-.1-.1-2.3v-4.3c0-3.6-.6-4.7-1-5.2a3 3 0 00-2.6-1.2c-1.1 0-2.2.4-3.3 1.3-.8.6-1.7 1.7-2.8 3.2v-5.1l-4.4 2.1v.3c-.6 2.4-2 5.1-4 8.1l-.4.5 2 1.6.4-.5 1.9-2.9v9.3l4.5-2.9v-6l1-1.8 1.9-2.5 1-1M184.6 61.6c-.3-1.4-1-3.6-2.3-6.5a20.4 20.4 0 01-1.7-7c0-2.6.8-4.7 2.2-6.3l2 .1c2.7 0 5-.9 7-2.6l.3-.3-1-2-.7.5c-.5.5-1 .7-1.8.7-.2 0-1.2 0-4.6-.8a33 33 0 00-7.2-.8c-4.6 0-8.5 1.2-11.5 3.7s-4.5 5.5-4.5 9c0 1.9.6 3.4 1.7 4.6a5.8 5.8 0 004.3 1.7c2.5 0 5.4-1.2 5.7-6.7v-.6h-2v.5c-.2.8-.6 1.5-1 2-.6.4-1.1.6-1.7.6-1 0-1.7-.3-2.4-1-.7-.8-1-1.7-1-3a6 6 0 012.2-5 10 10 0 016.4-1.8c2 0 4.3.2 6.9.8a13.5 13.5 0 00-3.6 9.3c0 2 .6 4.9 2 8.8 1.3 3.8 2 6.7 2 8.6 0 3-1 5.6-3 7.7a10.3 10.3 0 01-7.7 3.2 9 9 0 01-9.3-9 7 7 0 011.9-5.1c1.2-1.3 2.8-2 4.7-2 1.3 0 2.3.4 3 1 .7.8 1 1.7 1.1 2.8 0 2.5-1.8 3.9-5.5 4.4h-.5v2.2h.6c3.2-.2 5.6-1 7.2-2.3a6.6 6.6 0 002.6-5.4c0-1.8-.6-3.2-1.7-4.2a6.6 6.6 0 00-4.6-1.5c-3.6 0-6.6 1.2-9.2 3.5a11.2 11.2 0 00-3.8 8.6c0 3 1.2 5.5 3.3 7.3 2.2 1.9 5 2.8 8.4 2.8h.1c4.8 0 8.8-1.7 12.1-5a16 16 0 004.6-15.5M216.5 74.2a6 6 0 01-.2-1.8c0-1.3.3-2.3 1-3.3.6-.8 1.4-1.2 2.3-1.2.4 0 .7 0 1 .4.2.3.3.6.3 1.1 0 1.8-1.4 3.4-4.3 5v-.2zM195 50.7c0-2.3.2-4 .8-5.3.7-1.7 1.6-1.6 1.9-1.7.2 0 .7.1 1 .8.5.6.6 1.4.7 2.3 0 1.8-.4 3.8-1.2 6-.6 1.8-1.7 4.1-3.2 7v-9.1zm32.4 23.5c-1 1.3-2 2.3-3.2 3-1.2.7-2.2 1-3 1h-.1c-1.6 0-2.7-.4-3.3-1.4 4.8-2.8 7.2-5.6 7.2-8.6 0-1-.4-1.8-1.1-2.5-.7-.6-1.6-.9-2.6-.9a8 8 0 00-5.1 2 39.2 39.2 0 00-5.7 6.8l-.5.6c-2.4 3.5-3.6 4-4.1 4 0 0-.3-.2-.3-1.9v-6.5a6 6 0 00-1-3.5 3.2 3.2 0 00-2.7-1.3c-1.4 0-2.7.4-3.9 1.3a18 18 0 00-3 3v-4c5.3-8.7 8-14.8 7.9-18.8 0-4.2-2.3-5-4.3-5-2.2 0-4.2 1-5.8 3.2-1.6 2-2.4 4.7-2.4 8v14s0 .5-1 2.5a52.4 52.4 0 01-3.4 5.7l-.3.5 2 1.6.4-.5c.8-1 1.6-2.3 2.4-3.6v10l4.6-2.8v-5.4s0-.5.9-2.2a9.8 9.8 0 012.2-2.9c.7-.6 1.4-1 2-1 .4 0 .5.2.5.2.2.2.3.5.3 1V77c0 1.9.3 3 .7 3.8.5.7 1.3 1 2.2 1 2.5 0 5-1.6 7.4-5l.4-.5.5-.7c.1 1.9.7 3.4 1.8 4.5a6.3 6.3 0 004.7 1.8c2.6 0 4.7-.5 6.3-1.5 1.6-1 3.1-2.6 4.4-4.8l.3-.4-2-1.6-.3.6zM253.7 81.7h.1c4.4 0 8-1.3 10.8-3.9 2.9-2.6 4.3-5.8 4.3-9.6 0-1.4-.3-3.1-1-5.1-.7-2.3-.8-3.4-.8-3.9 0-1.5.8-2.6 2.6-3.6l.6-.3-1.2-1.9-.5.2c-1.1.4-2.7 1.5-4.9 3.5-2 1.8-3.7 3-5.1 3.5-1.4.5-2.8.8-4.2.8a6 6 0 01-5-2.2 9.5 9.5 0 01-2-6.3c0-3.7 1.1-7 3.4-9.6 2.2-2.7 4.8-4 8-4 2 0 3.7.6 5 1.7a5.4 5.4 0 011.9 4.3c0 1.4-.5 2.6-1.5 3.7-1 1-2 1.5-3.1 1.5-.8 0-1.4-.2-1.8-.7-.4-.4-.7-1-.7-2 0-1.2.7-2.4 2-3.5l.4-.4-1-1.6-.5.3c-3.4 1.5-5 3.8-5 6.6 0 1.3.4 2.4 1.3 3.2 1 .8 2 1.2 3.5 1.2 2.6 0 5-1 7-3.2 1.9-2 3-4.5 2.9-7.2 0-2.2-.8-3.9-2.3-5.1a9.1 9.1 0 00-6-1.8 18 18 0 00-13 5.7c-3.7 3.7-5.6 8-5.6 12.6 0 3.2 1 5.7 2.9 7.6 1.9 2 4.4 2.9 7.5 2.9A17 17 0 00263 61l-.1 1.3c0 .7.1 2 .4 3.7.3 1.7.4 3 .4 3.8a9 9 0 01-9.3 9.3c-2.2 0-4-.6-5.5-1.8a5.3 5.3 0 01-2.1-4.4v-1.3l.1-.2-.4-1.3-.6.1c-2 .6-3.6 1.2-4.7 2l-.3.3.1.4c1.7 5.8 6 8.8 12.7 8.8M336.4 73.7a6 6 0 01-.2-1.8c0-1.3.3-2.4 1-3.3.6-.8 1.4-1.2 2.3-1.3.4 0 .7.2 1 .4.2.3.3.7.3 1.2 0 1.8-1.4 3.4-4.3 5v-.2zm-17 4a3 3 0 01-2.3-1c-.7-.9-1-1.8-1-3.1a7 7 0 011.8-4.7c1.1-1.4 2.4-2 3.9-2 1 0 2 .2 2.5.9.7.6 1 1.4 1 2.6 0 1.8-.6 3.5-1.8 5-1.2 1.5-2.5 2.3-4 2.3zm-35.7-1.5c-.8.8-1.5 1.2-2.3 1.2-1.2 0-2-.3-2.6-1-.6-.8-1-1.8-1-3.2 0-1.7.5-3 1.4-4.1 1-1.1 2-1.6 3-1.6s1.9.3 2.6 1v6.1c0 .1-.2.5-1.1 1.6zm86-3.3l-.4.6c-2.6 3.6-3.8 4-4.2 4l-.2-.2-.1-2.2v-4.4c0-3.6-.5-4.7-1-5.2a3.1 3.1 0 00-2.5-1.2c-1.2 0-2.3.5-3.4 1.4-.8.6-1.7 1.6-2.8 3v-5l-4.4 2.1v.3c-.6 2.4-1.9 5.1-4 8.1l-.2.3c-.8 1-1.6 1.7-2.5 2.2-1.2.7-2.2 1-3 1h-.1c-1.6 0-2.7-.4-3.3-1.4 4.8-2.8 7.2-5.6 7.2-8.6 0-1-.4-1.8-1.1-2.5-.7-.6-1.6-1-2.6-1a8 8 0 00-5.1 2.1 39.5 39.5 0 00-5.8 6.9l-.4.5-.4.6-.3.4a13.6 13.6 0 01-6 4.7c1-.8 2-1.8 2.8-3 2.3-3.3 3.5-7.4 3.4-12.1 0-4.4-1-8-3.2-10.8-2.2-2.8-4.8-4.2-7.7-4.3-1.4 0-2.5.5-3.4 1.4-1 .8-1.4 2-1.4 3.5v1.2l1-.6c1-.6 2-1 3-1 2.3 0 4.2 1.1 5.8 3.4a12.3 12.3 0 012.6 8.6 5.8 5.8 0 00-4.1-1.5c-4 0-8 3.2-12.2 9.6-1 1.4-1.9 2.5-2.6 3a3 3 0 01-2 1s-.4 0-.8-.6c-.4-.5-.5-1-.5-1.4 0-2 .3-3.7 1.1-5.3a25 25 0 013.1-4.8l.4-.6-1.5-1-.4.3c-.7.8-1.5 1.2-2.5 1.2s-2.6-.5-4.6-1.4l-.6-.3-.3.6a51.7 51.7 0 01-5 9.7 18 18 0 01-2.3 2.7c-1.1 1-1.4 1-1.5 1l-.2-.1a9 9 0 01-.2-1.8V64l-3.5 1.7a7 7 0 00-3.3-.9c-1.8 0-3.7.9-6 2.7a29.4 29.4 0 00-6.1 7l-.3.6 2 1.5.4-.6.5-.7c.1 1.8.7 3.3 1.7 4.4 1 1.3 2.6 2 4.4 2a7 7 0 003.4-.9c.7-.4 1.6-1 2.5-2 .1.8.3 1.3.6 1.7.6.6 1.4 1 2.4 1 2.5 0 5-1.9 7.4-5.5 1.7-2.2 3-4.4 4.2-6.7.5.2 1.1.3 1.6.3h.8a12 12 0 00-2.6 6.9c0 4 2.4 4.9 4.4 4.9 2.5 0 4.9-1.7 7.2-5l.7-1v.3c0 1.5.6 2.9 1.7 4a6 6 0 004.4 1.6 8 8 0 003.2-.6l.5 1.2h.5a13 13 0 009.2-5.6l.2-.3.4-.7.2-.2c0 1.9.7 3.4 1.8 4.5a6.3 6.3 0 004.7 1.8c2.6 0 4.7-.5 6.3-1.5 1.6-1 3-2.6 4.4-4.8l1.4-2.1v9.3l4.6-3v-6A29.2 29.2 0 01358 69c.3-.5.7-.8 1-1 .3-.3.5-.4.7-.4.1 0 .5 0 .5 1.1v7.5c0 2 .2 3.2.8 3.9.5.6 1.3 1 2.2 1 2.7 0 5.3-2 8-6.1l.4-.5-2-1.7z"/><path fill="#00AD8D" mask="url(#d)" d="M92.2 97.3h279v-5.2h-279z"/></g></svg>
