<svg width="26" height="20" xmlns="http://www.w3.org/2000/svg"><path d="M25.934 10.213s-.083-.052-.25-.143c-.597-.327-2.41-1.32-5.796-2.213a1.307 1.307 0 01-.383-.173c-.418-.284-.625-.613-.826-.932-.246-.39-.478-.76-1.037-.969-1.318-.496-2.406.016-2.986.659a11.77 11.77 0 00-.448.53s-.226.387-.445.235c-.08-.056-4.13-3.08-4.77-3.56a.825.825 0 00-.186-.104L.122.007a.089.089 0 00-.12.097l.401 2.233s.017.1.055.272l.053.115 1.894.377-1.733.297.057.169c.316.925.91 2.176 1.944 2.883l.055.037 1.823-.425-1.54.897.19.136c.084.06 2.1 1.493 3.393 1.82l.06.014.822-.472-.62.656.25.064c.036.009.892.22 2.022.143a5.43 5.43 0 00.484-.054l.153.003c.105-.01.238-.006.283.068.102.17-.234.689-.338 1.016a8.561 8.561 0 002.309 9.568l.063.036a.307.307 0 00.463-.264c-.157-.573-.31-1.68.361-2.806l.067-.105a.278.278 0 00-.028-.34 7.407 7.407 0 01-.067-.074c-.317-.354-1.145-1.309-1.812-2.366l-.06-.1c-.015-.388.786-.709 1.561-1.02.686-.275 1.396-.56 1.829-.965.76-.712 1.164-1.655 1.182-1.697.033-.08.84-1.95 3.937-1.683 3.185.273 6.235 1.921 6.266 1.938v-.002c.01.005.019.011.03.014a.151.151 0 00.184-.108.15.15 0 00-.063-.162l.002-.004z" fill="#090A0A" fill-rule="evenodd"/></svg>