<svg width="18" height="18" xmlns="http://www.w3.org/2000/svg"><g fill="none" fill-rule="evenodd"><path stroke-opacity=".205" stroke="#090A0A" d="M-1290.5-20.5h1441v116h-1441z"/><path d="M16.513 16.512h-3.164V11.56c0-1.18-.021-2.699-1.645-2.699-1.645 0-1.896 1.287-1.896 2.615v5.036H6.647V6.33h3.032v1.391h.043c.424-.8 1.455-1.643 2.994-1.643 3.205 0 3.797 2.107 3.797 4.85v5.583zM3.079 4.94a1.835 1.835 0 11-.003-3.671 1.835 1.835 0 01.003 3.67zM1.493 16.51h3.168V6.332H1.493v10.18z" fill="#090A0A"/></g></svg>