<svg width="18" height="18" xmlns="http://www.w3.org/2000/svg"><g fill="none" fill-rule="evenodd"><path stroke-opacity=".205" stroke="#090A0A" d="M-1352.5-20.5h1441v116h-1441z"/><path d="M6.026 16.01c6.038 0 9.341-5.007 9.341-9.341 0-.141 0-.282-.006-.423A6.689 6.689 0 0017 4.543a6.654 6.654 0 01-1.889.519 3.303 3.303 0 001.447-1.819 6.53 6.53 0 01-2.087.794A3.277 3.277 0 0012.076 3a3.287 3.287 0 00-3.284 3.285c0 .256.032.505.083.749a9.323 9.323 0 01-6.767-3.432 3.292 3.292 0 001.018 4.386 3.32 3.32 0 01-1.486-.41v.045a3.29 3.29 0 002.632 3.22 3.2 3.2 0 01-.865.115c-.21 0-.416-.019-.614-.057a3.283 3.283 0 003.067 2.28 6.585 6.585 0 01-4.079 1.408c-.262 0-.525-.013-.781-.045a9.339 9.339 0 005.026 1.466" fill="#090A0A"/></g></svg>