<svg width="18" height="18" xmlns="http://www.w3.org/2000/svg"><g fill="none" fill-rule="evenodd"><path stroke-opacity=".205" stroke="#090A0A" d="M-1321.5-20.5h1441v116h-1441z"/><path d="M9 1a8 8 0 00-8 8 8.005 8.005 0 005.085 7.453c-.07-.633-.133-1.606.027-2.297.146-.625.938-3.977.938-3.977s-.239-.48-.239-1.188c0-1.113.645-1.943 1.448-1.943.682 0 1.012.512 1.012 1.127 0 .686-.437 1.713-.663 2.664-.188.796.4 1.445 1.185 1.445 1.422 0 2.515-1.499 2.515-3.663 0-1.916-1.377-3.255-3.342-3.255-2.276 0-3.612 1.707-3.612 3.472 0 .688.265 1.425.595 1.826a.24.24 0 01.056.23c-.061.252-.196.795-.222.906-.035.147-.116.178-.268.108-1-.466-1.624-1.927-1.624-3.1 0-2.524 1.834-4.841 5.286-4.841 2.775 0 4.932 1.977 4.932 4.62 0 2.758-1.739 4.977-4.151 4.977-.811 0-1.573-.422-1.834-.919l-.498 1.902c-.181.695-.669 1.566-.995 2.097A8 8 0 0017 9a8 8 0 00-8-8" fill="#090A0A"/></g></svg>