<?xml version="1.0" encoding="UTF-8"?>
<svg width="60px" height="60px" viewBox="0 0 60 60" version="1.1" xmlns="http://www.w3.org/2000/svg" xmlns:xlink="http://www.w3.org/1999/xlink">
    <!-- Generator: Sketch 60.1 (88133) - https://sketch.com -->
    <title>Icon / Accessories</title>
    <desc>Created with Sketch.</desc>
    <g id="Icon-/-Accessories" stroke="none" stroke-width="1" fill="none" fill-rule="evenodd">
        <g id="Group-41" transform="translate(5.000000, 9.000000)">
            <path d="M8.036,14.0617 C7.776,14.0617 7.516,13.9617 7.326,13.7717 C7.236,13.6817 7.166,13.5717 7.116,13.4517 C7.066,13.3217 7.036,13.2017 7.036,13.0617 C7.036,12.8017 7.146,12.5517 7.326,12.3617 C7.556,12.1317 7.906,12.0217 8.236,12.0917 C8.296,12.1017 8.356,12.1217 8.416,12.1417 C8.476,12.1717 8.536,12.2017 8.596,12.2317 C8.646,12.2717 8.696,12.3117 8.746,12.3617 C8.836,12.4517 8.906,12.5617 8.956,12.6817 C9.016,12.8017 9.036,12.9317 9.036,13.0617 C9.036,13.2017 9.016,13.3217 8.956,13.4517 C8.906,13.5717 8.836,13.6817 8.746,13.7717 C8.696,13.8217 8.646,13.8617 8.596,13.9017 C8.536,13.9317 8.476,13.9617 8.416,13.9917 C8.356,14.0117 8.296,14.0317 8.236,14.0417 C8.166,14.0617 8.106,14.0617 8.036,14.0617" id="Fill-1" fill="#090A0A"></path>
            <path d="M35.036,17.0617 C34.906,17.0617 34.776,17.0417 34.656,16.9917 C34.536,16.9417 34.426,16.8617 34.326,16.7717 C34.236,16.6817 34.166,16.5717 34.116,16.4517 C34.066,16.3217 34.036,16.2017 34.036,16.0617 C34.036,15.9317 34.066,15.8017 34.116,15.6817 C34.166,15.5617 34.236,15.4517 34.326,15.3617 C34.426,15.2617 34.526,15.1917 34.656,15.1417 C35.016,14.9917 35.466,15.0817 35.746,15.3617 C35.836,15.4517 35.906,15.5617 35.956,15.6817 C36.006,15.8117 36.036,15.9317 36.036,16.0617 C36.036,16.2017 36.006,16.3217 35.956,16.4517 C35.906,16.5717 35.836,16.6817 35.746,16.7717 C35.696,16.8217 35.646,16.8617 35.596,16.9017 C35.536,16.9317 35.476,16.9617 35.416,16.9917 C35.356,17.0117 35.296,17.0317 35.236,17.0517 C35.166,17.0617 35.106,17.0617 35.036,17.0617" id="Fill-3" fill="#090A0A"></path>
            <path d="M36.536,28.0617 C36.406,28.0617 36.276,28.0417 36.156,27.9917 C36.026,27.9417 35.926,27.8617 35.826,27.7717 C35.786,27.7317 35.746,27.6717 35.706,27.6217 C35.666,27.5717 35.636,27.5117 35.616,27.4517 C35.586,27.3917 35.566,27.3217 35.556,27.2617 C35.546,27.1917 35.536,27.1317 35.536,27.0617 C35.536,26.9317 35.566,26.8017 35.616,26.6817 C35.666,26.5617 35.736,26.4517 35.826,26.3617 C36.056,26.1317 36.406,26.0217 36.736,26.0817 C36.796,26.1017 36.856,26.1217 36.916,26.1417 C36.976,26.1717 37.036,26.2017 37.096,26.2317 C37.146,26.2717 37.196,26.3117 37.246,26.3617 C37.336,26.4517 37.406,26.5617 37.456,26.6817 C37.506,26.8017 37.536,26.9317 37.536,27.0617 C37.536,27.1317 37.526,27.2017 37.516,27.2617 C37.506,27.3217 37.486,27.3917 37.456,27.4517 C37.436,27.5117 37.406,27.5717 37.366,27.6217 C37.326,27.6717 37.286,27.7317 37.246,27.7717 C37.196,27.8217 37.146,27.8617 37.096,27.9017 C37.036,27.9317 36.976,27.9617 36.916,27.9917 C36.856,28.0117 36.796,28.0317 36.736,28.0417 C36.666,28.0617 36.606,28.0617 36.536,28.0617" id="Fill-5" fill="#090A0A"></path>
            <path d="M16.036,36.5617 C15.906,36.5617 15.776,36.5417 15.656,36.4917 C15.536,36.4417 15.426,36.3617 15.326,36.2717 C15.236,36.1817 15.166,36.0717 15.116,35.9517 C15.066,35.8217 15.036,35.7017 15.036,35.5617 C15.036,35.3017 15.146,35.0417 15.326,34.8617 C15.426,34.7617 15.536,34.6917 15.656,34.6417 C16.026,34.4917 16.466,34.5817 16.746,34.8617 C16.926,35.0417 17.036,35.3017 17.036,35.5617 C17.036,35.7017 17.006,35.8217 16.956,35.9517 C16.906,36.0717 16.836,36.1817 16.746,36.2717 C16.556,36.4617 16.306,36.5617 16.036,36.5617" id="Fill-7" fill="#090A0A"></path>
            <path d="M35.85,5.6208 C39.938,9.3708 42.501,14.7568 42.501,20.7408 C42.501,32.0688 33.318,41.2518 21.99,41.2518 C15.39,41.2518 9.518,38.1348 5.767,33.2918" id="Stroke-9" stroke="#090A0A" stroke-linecap="round" stroke-linejoin="round"></path>
            <path d="M1.4862,21.2985 C1.4812,21.1135 1.4792,20.9275 1.4792,20.7405 C1.4792,9.4125 10.6622,0.2295 21.9902,0.2295 C22.8472,0.2295 23.6932,0.2825 24.5232,0.3845" id="Stroke-11" stroke="#090A0A" stroke-linecap="round" stroke-linejoin="round"></path>
            <path d="M29.6468,0.0222 C31.1808,-0.1968 32.9548,1.2352 33.1738,2.7692 C33.3938,4.3032 32.0278,5.7312 30.4938,5.9502 C28.9598,6.1692 27.0888,5.2042 26.8698,3.6702 C26.6508,2.1362 28.1128,0.2412 29.6468,0.0222 Z" id="Stroke-13" stroke="#090A0A" stroke-linecap="round" stroke-linejoin="round"></path>
            <path d="M7.3363,27.8928 C7.3363,29.6648 5.8033,30.5308 4.0313,30.5308 C2.2583,30.5308 0.0003,29.6648 0.0003,27.8928 C0.0003,26.1208 2.2583,23.7658 4.0313,23.7658 C5.8033,23.7658 7.3363,26.1208 7.3363,27.8928 Z" id="Stroke-15" stroke="#090A0A" stroke-linecap="round" stroke-linejoin="round"></path>
            <path d="M24.349,15.0363 C23.91,11.5983 23.086,8.2773 21.958,5.1133 C20.831,8.2763 20.035,11.5953 19.614,15.0313" id="Stroke-17" stroke="#090A0A" stroke-linecap="round" stroke-linejoin="round"></path>
            <path d="M19.6263,26.4631 C20.0543,29.8951 20.8563,33.2101 21.9903,36.3681 C23.1243,33.2061 23.9283,29.8871 24.3553,26.4501" id="Stroke-19" stroke="#090A0A" stroke-linecap="round" stroke-linejoin="round"></path>
            <path d="M16.2728,18.3835 C12.8398,18.8225 9.5228,19.6465 6.3628,20.7725 C9.5248,21.8995 12.8448,22.6965 16.2808,23.1165" id="Stroke-21" stroke="#090A0A" stroke-linecap="round" stroke-linejoin="round"></path>
            <path d="M27.6996,23.1057 C31.1366,22.6787 34.4556,21.8757 37.6176,20.7407 C34.4556,19.6057 31.1366,18.8027 27.6996,18.3757" id="Stroke-23" stroke="#090A0A" stroke-linecap="round" stroke-linejoin="round"></path>
            <line x1="46.3382" y1="2.0436" x2="46.3382" y2="37.4576" id="Stroke-25" stroke="#090A0A" stroke-linecap="round" stroke-linejoin="round"></line>
            <path d="M48.1161,40.9728 L44.5601,40.9728 C43.5891,40.9728 42.8031,40.1858 42.8031,39.2148 C42.8031,38.2438 43.5891,37.4578 44.5601,37.4578 L48.1161,37.4578 C49.0871,37.4578 49.8741,38.2438 49.8741,39.2148 C49.8741,40.1858 49.0871,40.9728 48.1161,40.9728 Z" id="Stroke-27" stroke="#090A0A" stroke-linecap="round" stroke-linejoin="round"></path>
            <path d="M49.4603,2.0436 L49.4603,4.8616 C49.4603,5.2806 49.1203,5.6206 48.7003,5.6206 L43.9753,5.6206 C43.5563,5.6206 43.2163,5.2806 43.2163,4.8616 L43.2163,2.0436" id="Stroke-29" stroke="#090A0A" stroke-linecap="round" stroke-linejoin="round"></path>
            <path d="M25.4999,20.9865 C28.6249,17.5305 31.1389,13.7195 33.0409,9.6905 C29.0049,11.5945 25.1879,14.1135 21.7289,17.2445" id="Stroke-31" stroke="#090A0A" stroke-linecap="round" stroke-linejoin="round"></path>
            <path d="M18.5057,20.4626 C15.3707,23.9286 12.8767,27.7776 10.9617,31.8136 C14.9927,29.9006 18.8047,27.3776 22.2587,24.2386" id="Stroke-33" stroke="#090A0A" stroke-linecap="round" stroke-linejoin="round"></path>
            <path d="M21.7284,24.237 C25.1884,27.368 29.0044,29.887 33.0404,31.791 C31.1394,27.762 28.6244,23.951 25.4994,20.495" id="Stroke-35" stroke="#090A0A" stroke-linecap="round" stroke-linejoin="round"></path>
            <path d="M22.2523,17.2424 C18.7913,14.1144 14.9463,11.6244 10.9173,9.7124 C12.8333,13.7494 15.3613,17.5674 18.5063,21.0254" id="Stroke-37" stroke="#090A0A" stroke-linecap="round" stroke-linejoin="round"></path>
            <path d="M25.5248,20.7409 C25.5248,22.6869 23.9468,24.2639 22.0018,24.2639 C20.0548,24.2639 18.4778,22.6869 18.4778,20.7409 C18.4778,18.7949 20.0548,17.2169 22.0018,17.2169 C23.9468,17.2169 25.5248,18.7949 25.5248,20.7409 Z" id="Stroke-39" stroke="#090A0A" stroke-linecap="round" stroke-linejoin="round"></path>
        </g>
    </g>
</svg>