<?xml version="1.0" encoding="UTF-8"?>
<svg width="60px" height="60px" viewBox="0 0 60 60" version="1.1" xmlns="http://www.w3.org/2000/svg" xmlns:xlink="http://www.w3.org/1999/xlink">
    <!-- Generator: Sketch 60.1 (88133) - https://sketch.com -->
    <title>Icon /  Irrigation</title>
    <desc>Created with Sketch.</desc>
    <defs>
        <polygon id="path-1" points="0 53.9185 45.935 53.9185 45.935 -0.0005 0 -0.0005"></polygon>
    </defs>
    <g id="Icon-/--Irrigation" stroke="none" stroke-width="1" fill="none" fill-rule="evenodd">
        <g id="Group-13" transform="translate(7.000000, 3.000000)">
            <polygon id="Stroke-1" stroke="#000000" stroke-linecap="round" stroke-linejoin="round" points="0.4996 21.4454 10.1136 21.4454 10.1136 28.7374 0.4996 28.7374"></polygon>
            <path d="M28.2601,28.7369 L36.0921,28.7369 L36.0921,36.8109 L43.3831,36.8109 L43.3831,28.1199 C43.3831,24.4339 40.3941,21.4449 36.7081,21.4449 L28.2601,21.4449" id="Stroke-3" stroke="#000000" stroke-linecap="round" stroke-linejoin="round"></path>
            <mask id="mask-2" fill="white">
                <use xlink:href="#path-1"></use>
            </mask>
            <g id="Clip-6"></g>
            <polygon id="Stroke-5" stroke="#000000" stroke-linecap="round" stroke-linejoin="round" mask="url(#mask-2)" points="10.114 31.0315 28.26 31.0315 28.26 19.1495 10.114 19.1495"></polygon>
            <line x1="19.1868" y1="18.8531" x2="19.1868" y2="12.0481" id="Stroke-7" stroke="#000000" stroke-linecap="round" stroke-linejoin="round" mask="url(#mask-2)"></line>
            <line x1="13.8939" y1="12.0479" x2="24.1559" y2="12.0479" id="Stroke-8" stroke="#000000" stroke-linecap="round" stroke-linejoin="round" mask="url(#mask-2)"></line>
            <path d="M8.3851,0.5982 C8.3851,0.5982 19.1871,-1.3458 19.1871,12.0482 C19.1871,12.0482 7.5211,11.4002 8.3851,0.5982 Z" id="Stroke-9" stroke="#000000" stroke-linecap="round" stroke-linejoin="round" mask="url(#mask-2)"></path>
            <path d="M29.9886,0.5982 C29.9886,0.5982 19.1866,-1.3458 19.1866,12.0482 C19.1866,12.0482 30.8526,11.4002 29.9886,0.5982 Z" id="Stroke-10" stroke="#000000" stroke-linecap="round" stroke-linejoin="round" mask="url(#mask-2)"></path>
            <path d="M43.3826,49.962 C43.3826,51.871 41.8346,53.419 39.9256,53.419 C38.0166,53.419 36.4696,51.871 36.4696,49.962 C36.4696,48.053 39.9256,40.672 39.9256,40.672 C39.9256,40.672 43.3826,48.053 43.3826,49.962 Z" id="Stroke-11" stroke="#000000" stroke-linecap="round" stroke-linejoin="round" mask="url(#mask-2)"></path>
            <line x1="34.2552" y1="36.8111" x2="45.4352" y2="36.8111" id="Stroke-12" stroke="#000000" stroke-linecap="round" stroke-linejoin="round" mask="url(#mask-2)"></line>
        </g>
    </g>
</svg>