<?xml version="1.0" encoding="UTF-8"?>
<svg width="60px" height="60px" viewBox="0 0 60 60" version="1.1" xmlns="http://www.w3.org/2000/svg" xmlns:xlink="http://www.w3.org/1999/xlink">
    <!-- Generator: Sketch 60.1 (88133) - https://sketch.com -->
    <title>Icon / Pools</title>
    <desc>Created with Sketch.</desc>
    <g id="Icon-/-Pools" stroke="none" stroke-width="1" fill="none" fill-rule="evenodd" stroke-linecap="round">
        <g id="Group-21" transform="translate(2.000000, 9.000000)" stroke="#000000">
            <path d="M37.4211,5.466 C33.4631,5.466 29.7011,6.727 26.5431,9.112 C26.1271,9.426 25.6111,9.6 25.0921,9.6 C24.7071,9.6 24.3281,9.504 23.9961,9.322 C21.6281,8.026 18.9431,7.341 16.2341,7.34 C15.6121,7.34 14.9821,7.376 14.3581,7.447 C6.9131,8.291 0.9161,14.307 0.0981,21.752 C-0.4089,26.364 1.0641,30.978 4.1401,34.41 C7.2171,37.844 11.6261,39.814 16.2341,39.814 C18.8611,39.814 21.4731,39.167 23.7871,37.944 C24.2231,37.714 24.6971,37.592 25.1571,37.592 C25.5181,37.592 26.0501,37.67 26.5431,38.042 C29.7011,40.427 33.4631,41.688 37.4211,41.688 C42.4231,41.688 47.0801,39.693 50.5321,36.071 C53.9831,32.451 55.7511,27.698 55.5101,22.69 C55.0651,13.39 47.4241,5.83 38.1161,5.479 C37.8831,5.47 37.6521,5.466 37.4211,5.466 Z M37.4211,8.832 C37.6091,8.832 37.7991,8.836 37.9891,8.842 C45.5431,9.128 51.7871,15.3 52.1491,22.851 C52.5551,31.324 45.8051,38.322 37.4211,38.322 C34.0961,38.322 31.0341,37.216 28.5721,35.356 C27.5621,34.594 26.3671,34.226 25.1571,34.226 C24.1541,34.226 23.1411,34.479 22.2141,34.968 C20.4291,35.912 18.3951,36.448 16.2341,36.448 C8.6461,36.448 2.5911,29.881 3.4431,22.119 C4.0901,16.232 8.8531,11.458 14.7371,10.791 C15.2421,10.734 15.7411,10.706 16.2341,10.706 C18.4621,10.706 20.5551,11.276 22.3801,12.275 C23.2281,12.738 24.1611,12.966 25.0921,12.966 C26.3231,12.966 27.5511,12.568 28.5721,11.797 C31.0341,9.937 34.0961,8.832 37.4211,8.832 L37.4211,8.832 Z" id="Stroke-1"></path>
            <path d="M8.4065,19.8757 C8.8705,19.8757 9.3245,20.3547 9.3245,20.3547 C9.8275,20.8797 10.6665,20.8797 11.1695,20.3557 C11.6725,19.8317 12.5105,19.8317 13.0135,20.3547 L13.0175,20.3587 C13.5205,20.8817 14.3495,20.8747 14.8605,20.3587 C15.3395,19.8757 15.7865,19.8757 15.7865,19.8757" id="Stroke-3"></path>
            <path d="M25.1575,18.2883 C25.6215,18.2883 26.0755,18.7673 26.0755,18.7673 C26.5785,19.2923 27.4175,19.2933 27.9205,18.7683 C28.4235,18.2443 29.2615,18.2443 29.7645,18.7673 L29.7685,18.7713 C30.2715,19.2953 31.1005,19.2873 31.6115,18.7713 C32.0905,18.2883 32.5375,18.2883 32.5375,18.2883" id="Stroke-5"></path>
            <path d="M15.9856,26.1349 C16.4496,26.1349 16.9036,26.6139 16.9036,26.6139 C17.4066,27.1389 18.2456,27.1399 18.7496,26.6149 C19.2516,26.0909 20.0896,26.0909 20.5926,26.6139 L20.5966,26.6179 C21.0996,27.1419 21.9286,27.1339 22.4396,26.6179 C22.9186,26.1349 23.3656,26.1349 23.3656,26.1349" id="Stroke-7"></path>
            <path d="M38.4944,23.384 C38.9584,23.384 39.4124,23.863 39.4124,23.863 C39.9154,24.388 40.7544,24.389 41.2584,23.864 C41.7604,23.34 42.5984,23.34 43.1014,23.863 L43.1054,23.867 C43.6084,24.391 44.4374,24.383 44.9484,23.867 C45.4274,23.384 45.8744,23.384 45.8744,23.384" id="Stroke-9"></path>
            <path d="M30.8816,30.2653 C31.3456,30.2653 31.7996,30.7443 31.7996,30.7443 C32.3026,31.2693 33.1416,31.2693 33.6456,30.7443 C34.1476,30.2213 34.9856,30.2203 35.4886,30.7443 L35.4926,30.7483 C35.9956,31.2713 36.8246,31.2643 37.3356,30.7483 C37.8146,30.2653 38.2616,30.2653 38.2616,30.2653" id="Stroke-11"></path>
            <path d="M41.6609,0.0002 L39.9829,0.0002 C38.4269,0.0002 37.1659,1.2612 37.1659,2.8172 L37.1659,20.3512" id="Stroke-13"></path>
            <path d="M49.0574,0.0002 L47.3794,0.0002 C45.8244,0.0002 44.5624,1.2612 44.5624,2.8172 L44.5624,20.3512" id="Stroke-15"></path>
            <line x1="37.1658" y1="14.089" x2="44.5618" y2="14.089" id="Stroke-17"></line>
            <line x1="37.1658" y1="17.2424" x2="44.5618" y2="17.2424" id="Stroke-19"></line>
        </g>
    </g>
</svg>