<?xml version="1.0" encoding="UTF-8"?>
<svg width="60px" height="60px" viewBox="0 0 60 60" version="1.1" xmlns="http://www.w3.org/2000/svg" xmlns:xlink="http://www.w3.org/1999/xlink">
    <!-- Generator: Sketch 60.1 (88133) - https://sketch.com -->
    <title>Icon / Local Art</title>
    <desc>Created with Sketch.</desc>
    <g id="Icon-/-Local-Art" stroke="none" stroke-width="1" fill="none" fill-rule="evenodd">
        <g id="Group-27" transform="translate(7.000000, 6.000000)">
            <path d="M34.8726,23.4789 C34.8726,29.8179 29.7336,34.9579 23.3946,34.9579 C17.0546,34.9579 11.9156,29.8179 11.9156,23.4789 C11.9156,17.1399 17.0546,11.9999 23.3946,11.9999 C29.7336,11.9999 34.8726,17.1399 34.8726,23.4789 Z" id="Stroke-1" stroke="#090A0A" stroke-linecap="round"></path>
            <path d="M27.107,34.3397 L35.912,43.1507 C32.662,46.2667 28.252,48.1807 23.395,48.1807 C18.537,48.1807 14.127,46.2667 10.877,43.1507 L19.682,34.3397" id="Stroke-3" stroke="#090A0A" stroke-linecap="round"></path>
            <path d="M29.2672,23.4789 C29.2672,26.7229 26.6382,29.3519 23.3942,29.3519 C20.1512,29.3519 17.5212,26.7229 17.5212,23.4789 C17.5212,20.2359 20.1512,17.6059 23.3942,17.6059 C26.6382,17.6059 29.2672,20.2359 29.2672,23.4789 Z" id="Stroke-5" stroke="#090A0A" stroke-linecap="round"></path>
            <path d="M21.0211,12.2465 C18.9601,11.3345 17.5211,9.2715 17.5211,6.8725 C17.5211,3.6295 20.1511,0.9995 23.3951,0.9995 C26.6381,0.9995 29.2671,3.6295 29.2671,6.8725 C29.2671,9.2715 27.8291,11.3345 25.7671,12.2465" id="Stroke-7" stroke="#090A0A" stroke-linecap="round"></path>
            <line x1="22.2457" y1="34.9052" x2="18.8887" y2="47.6362" id="Stroke-9" stroke="#090A0A" stroke-linecap="round"></line>
            <line x1="24.543" y1="34.9052" x2="27.9" y2="47.6362" id="Stroke-11" stroke="#090A0A" stroke-linecap="round"></line>
            <path d="M14.9337,15.7279 L9.7257,15.7279 C4.3537,15.7279 -0.0003,20.0819 -0.0003,25.4539 L-0.0003,31.3529 L14.9337,31.3529" id="Stroke-13" stroke="#090A0A" stroke-linecap="round"></path>
            <line x1="6.3258" y1="25.2826" x2="6.3258" y2="31.3526" id="Stroke-15" stroke="#090A0A" stroke-linecap="round"></line>
            <path d="M31.8551,15.7279 L37.0631,15.7279 C42.4351,15.7279 46.7891,20.0819 46.7891,25.4539 L46.7891,31.3529 L31.8551,31.3529" id="Stroke-17" stroke="#090A0A" stroke-linecap="round"></path>
            <line x1="40.463" y1="25.2826" x2="40.463" y2="31.3526" id="Stroke-19" stroke="#090A0A" stroke-linecap="round"></line>
            <line x1="14.2701" y1="6.6234" x2="17.5211" y2="6.6234" id="Stroke-21" stroke="#090A0A" stroke-linecap="round"></line>
            <path d="M23.3951,7.6263 C23.2651,7.6263 23.1351,7.5963 23.0151,7.5463 C22.8851,7.4963 22.7851,7.4263 22.6851,7.3263 C22.5051,7.1463 22.3951,6.8863 22.3951,6.6263 C22.3951,6.4963 22.4151,6.3663 22.4751,6.2363 C22.5251,6.1163 22.5951,6.0063 22.6851,5.9163 C22.7851,5.8263 22.8851,5.7463 23.0151,5.6963 C23.3851,5.5463 23.8251,5.6363 24.1051,5.9163 C24.1951,6.0063 24.2651,6.1163 24.3151,6.2363 C24.3651,6.3663 24.3951,6.4963 24.3951,6.6263 C24.3951,6.8863 24.2851,7.1463 24.1051,7.3263 C23.9151,7.5163 23.6551,7.6263 23.3951,7.6263" id="Fill-23" fill="#090A0A"></path>
            <path d="M23.3951,24.4764 C23.2651,24.4764 23.1351,24.4564 23.0151,24.4064 C22.8851,24.3464 22.7751,24.2764 22.6851,24.1864 C22.5051,23.9964 22.3951,23.7364 22.3951,23.4764 C22.3951,23.4164 22.4051,23.3464 22.4151,23.2864 C22.4251,23.2164 22.4451,23.1564 22.4751,23.0964 C22.4951,23.0364 22.5251,22.9764 22.5651,22.9264 C22.5951,22.8664 22.6451,22.8164 22.6851,22.7664 C22.7751,22.6764 22.8851,22.6064 23.0151,22.5564 C23.2551,22.4564 23.5351,22.4564 23.7751,22.5564 C23.8951,22.6064 24.0051,22.6764 24.1051,22.7664 C24.1451,22.8164 24.1851,22.8664 24.2251,22.9264 C24.2651,22.9764 24.2951,23.0364 24.3151,23.0964 C24.3451,23.1564 24.3651,23.2164 24.3751,23.2864 C24.3851,23.3464 24.3951,23.4164 24.3951,23.4764 C24.3951,23.7364 24.2851,23.9964 24.1051,24.1864 C24.0051,24.2764 23.8951,24.3464 23.7751,24.4064 C23.6551,24.4564 23.5251,24.4764 23.3951,24.4764" id="Fill-25" fill="#090A0A"></path>
        </g>
    </g>
</svg>