<?xml version="1.0" encoding="UTF-8"?>
<svg width="60px" height="60px" viewBox="0 0 60 60" version="1.1" xmlns="http://www.w3.org/2000/svg" xmlns:xlink="http://www.w3.org/1999/xlink">
    <!-- Generator: Sketch 60.1 (88133) - https://sketch.com -->
    <title>Icon / Gift</title>
    <desc>Created with Sketch.</desc>
    <g id="Icon-/-Gift" stroke="none" stroke-width="1" fill="none" fill-rule="evenodd" stroke-linecap="round">
        <g id="Group-12" transform="translate(1.000000, 8.000000)" stroke="#090A0A">
            <polygon id="Stroke-1" points="3.55271368e-15 44.4373 31.797 44.4373 31.797 5.7283 3.55271368e-15 5.7283"></polygon>
            <polygon id="Stroke-3" points="31.797 44.4373 54.707 44.4373 54.707 20.3423 31.797 20.3423"></polygon>
            <polygon id="Stroke-4" points="31.797 20.3423 57.077 20.3423 57.077 16.3923 31.797 16.3923"></polygon>
            <path d="M47.8115,15.192 C46.3125,16.374 44.4405,16.499 43.6295,15.471 C42.8195,14.443 43.3775,12.652 44.8765,11.47 C46.3755,10.288 48.2475,10.163 49.0585,11.191 C49.8685,12.219 49.3105,14.01 47.8115,15.192 Z" id="Stroke-5"></path>
            <path d="M38.6933,15.192 C40.1923,16.374 42.0643,16.499 42.8753,15.471 C43.6853,14.443 43.1273,12.652 41.6283,11.47 C40.1293,10.288 38.2573,10.163 37.4463,11.191 C36.6363,12.219 37.1943,14.01 38.6933,15.192 Z" id="Stroke-6"></path>
            <path d="M24.5864,8.7887 C24.5864,8.7557 24.5884,8.7237 24.5884,8.6897 C24.5884,3.8907 20.6984,-0.0003 15.8984,-0.0003 C11.0994,-0.0003 7.2094,3.8907 7.2094,8.6897 C7.2094,8.7237 7.2114,8.7557 7.2114,8.7887" id="Stroke-7"></path>
            <path d="M15.9203,13.9611 C15.9203,13.9611 13.3103,17.2221 11.8643,19.8511 C10.6403,22.0781 9.1013,26.2051 12.0453,30.3901 C14.9903,34.5741 15.4553,34.8841 15.4553,34.8841 C15.4553,34.8841 20.7373,32.9821 22.1463,26.9801 C23.5473,21.0111 17.6573,16.3161 15.9203,13.9611 Z" id="Stroke-8"></path>
            <path d="M16.4799,20.9357 C16.4799,20.9357 17.6579,32.9817 13.9439,38.8697" id="Stroke-9"></path>
            <line x1="43.2524" y1="20.3424" x2="43.2524" y2="44.4374" id="Stroke-10"></line>
            <line x1="31.7973" y1="32.3898" x2="54.7073" y2="32.3898" id="Stroke-11"></line>
        </g>
    </g>
</svg>