<?xml version="1.0" encoding="UTF-8"?>
<svg width="60px" height="60px" viewBox="0 0 60 60" version="1.1" xmlns="http://www.w3.org/2000/svg" xmlns:xlink="http://www.w3.org/1999/xlink">
    <!-- Generator: Sketch 60.1 (88133) - https://sketch.com -->
    <title>Icon /  Turf</title>
    <desc>Created with Sketch.</desc>
    <g id="Icon-/--Turf" stroke="none" stroke-width="1" fill="none" fill-rule="evenodd" stroke-linecap="round" stroke-linejoin="round">
        <g id="Group-15" transform="translate(3.000000, 7.000000)" stroke="#000000">
            <polyline id="Stroke-1" points="38.2749 22.4301 53.6629 29.0841 27.0819 42.4651 0.4999 29.0841 15.8879 22.4301"></polyline>
            <polyline id="Stroke-3" points="53.6626 32.6186 27.0816 45.9996 0.4996 32.6186"></polyline>
            <path d="M14.6255,14.8984 C12.3545,13.5764 10.4815,13.2164 10.4815,13.2164 C10.4815,13.2164 17.2215,18.9604 17.5145,32.4974 L27.0575,32.4974 C27.0575,32.4974 28.2385,12.4554 14.0565,8.9974 C14.0565,8.9974 19.6245,14.1224 19.6245,19.5294" id="Stroke-5"></path>
            <path d="M22.4371,32.497 C23.1651,24.198 20.2171,19.386 17.0671,16.644" id="Stroke-7"></path>
            <path d="M34.5386,19.5298 C34.5386,14.1228 40.1056,8.9978 40.1056,8.9978 C25.9246,12.4548 27.1056,32.4968 27.1056,32.4968 L36.6486,32.4968 C36.9416,18.9598 43.6806,13.2168 43.6806,13.2168 C43.6806,13.2168 41.3056,13.6738 38.6626,15.4458 C38.6626,15.4458 37.7246,16.0658 37.0956,16.6448 C34.0226,19.4718 30.9976,24.1978 31.7256,32.4968" id="Stroke-9"></path>
            <path d="M29.1553,7.8164 C29.1203,8.1224 29.0873,8.4344 29.0543,8.7534 C28.7033,12.2064 28.4813,16.3724 28.7543,20.4994" id="Stroke-11"></path>
            <path d="M23.0992,15.5708 C23.0992,15.5708 24.0782,4.9538 30.2892,0.4998 C30.2892,0.4998 29.9182,2.2148 29.5272,4.9218" id="Stroke-13"></path>
        </g>
    </g>
</svg>