<?xml version="1.0" encoding="UTF-8"?>
<svg width="60px" height="60px" viewBox="0 0 60 60" version="1.1" xmlns="http://www.w3.org/2000/svg" xmlns:xlink="http://www.w3.org/1999/xlink">
    <!-- Generator: Sketch 60.1 (88133) - https://sketch.com -->
    <title>Icon / Plant ID</title>
    <desc>Created with Sketch.</desc>
    <g id="Icon-/-Plant-ID" stroke="none" stroke-width="1" fill="none" fill-rule="evenodd" stroke-linecap="round">
        <g id="Group-21" transform="translate(8.000000, 6.000000)" stroke="#000000">
            <g id="Group-9" transform="translate(0.000000, 0.790600)">
                <polyline id="Stroke-1" points="8.3179 0.2097 -0.0001 0.2097 -0.0001 8.5267"></polyline>
                <polyline id="Stroke-3" points="44.7905 8.527 44.7905 0.21 36.4725 0.21"></polyline>
                <polyline id="Stroke-5" points="36.4727 45.0002 44.7907 45.0002 44.7907 36.6822"></polyline>
                <polyline id="Stroke-7" points="0 36.6823 0 45.0003 8.318 45.0003"></polyline>
            </g>
            <line x1="22.3955" y1="18.3298" x2="12.4275" y2="12.9128" id="Stroke-10"></line>
            <line x1="22.3955" y1="30.1907" x2="8.7745" y2="22.7887" id="Stroke-11"></line>
            <g id="Group-20" transform="translate(8.000000, 1.790600)">
                <path d="M14.3955,37.5998 C14.3955,37.5998 28.0415,37.5998 28.0415,21.6798 C28.0415,13.7718 21.2405,6.2238 14.3955,0.6278 C7.5495,6.2238 0.7495,13.7718 0.7495,21.6798 C0.7495,37.5998 14.3955,37.5998 14.3955,37.5998 Z" id="Stroke-12"></path>
                <line x1="14.3955" y1="16.5392" x2="24.3625" y2="11.1222" id="Stroke-14"></line>
                <line x1="14.3955" y1="28.4001" x2="28.0155" y2="20.9981" id="Stroke-16"></line>
                <line x1="14.3955" y1="0.6281" x2="14.3955" y2="43.5811" id="Stroke-18"></line>
            </g>
        </g>
    </g>
</svg>