<?xml version="1.0" encoding="UTF-8"?>
<svg width="60px" height="60px" viewBox="0 0 60 60" version="1.1" xmlns="http://www.w3.org/2000/svg" xmlns:xlink="http://www.w3.org/1999/xlink">
    <!-- Generator: Sketch 60.1 (88133) - https://sketch.com -->
    <title>Icon / Fountain</title>
    <desc>Created with Sketch.</desc>
    <g id="Icon-/-Fountain" stroke="none" stroke-width="1" fill="none" fill-rule="evenodd" stroke-linecap="round">
        <g id="Group-39" transform="translate(7.000000, 5.000000)" stroke="#090A0A">
            <path d="M20.8815,9.1866 L20.8815,6.0246 C20.8815,2.6976 18.1835,-0.0004 14.8565,-0.0004 C11.5285,-0.0004 8.8315,2.6976 8.8315,6.0246 L8.8315,16.1156" id="Stroke-1"></path>
            <line x1="8.8312" y1="20.0352" x2="8.8312" y2="21.9252" id="Stroke-3"></line>
            <line x1="8.8312" y1="25.6231" x2="8.8312" y2="27.5131" id="Stroke-5"></line>
            <path d="M20.8815,9.1866 L20.8815,6.0246 C20.8815,2.6976 23.5785,-0.0004 26.9065,-0.0004 C30.2335,-0.0004 32.9315,2.6976 32.9315,6.0246 L32.9315,13.1056" id="Stroke-7"></path>
            <line x1="32.9313" y1="17.0254" x2="32.9313" y2="18.9154" id="Stroke-9"></line>
            <line x1="32.9313" y1="22.6133" x2="32.9313" y2="24.5033" id="Stroke-11"></line>
            <path d="M15.2511,9.2564 C14.3691,9.2564 13.5831,9.9384 13.5781,10.8194 L13.5781,10.8364 C13.5781,13.4934 16.8481,15.6484 20.8811,15.6484 C24.9151,15.6484 28.1841,13.4934 28.1841,10.8364 L28.1841,10.8194 C28.1791,9.9384 27.3941,9.2564 26.5121,9.2564 L15.2511,9.2564 Z" id="Stroke-13"></path>
            <path d="M25.1159,23.5581 L16.6469,23.5581 C15.8029,23.5581 15.1179,22.8741 15.1179,22.0301 C15.1179,21.1861 15.8029,20.5021 16.6469,20.5021 L25.1159,20.5021 C25.9599,20.5021 26.6439,21.1861 26.6439,22.0301 C26.6439,22.8741 25.9599,23.5581 25.1159,23.5581 Z" id="Stroke-15"></path>
            <path d="M19.1374,34.7569 L5.4094,34.7569 C4.5654,34.7569 3.8814,34.0729 3.8814,33.2289 C3.8814,32.3849 4.5654,31.7009 5.4094,31.7009 L36.7274,31.7009 C37.5714,31.7009 38.2564,32.3849 38.2564,33.2289 C38.2564,34.0729 37.5714,34.7569 36.7274,34.7569 L22.6254,34.7569" id="Stroke-17"></path>
            <line x1="21.8766" y1="45.0108" x2="15.1016" y2="45.0108" id="Stroke-19"></line>
            <path d="M11.613,45.0108 L5.409,45.0108 C4.565,45.0108 3.881,44.3268 3.881,43.4828 C3.881,42.6388 4.565,41.9548 5.409,41.9548 L25.758,41.9548" id="Stroke-21"></path>
            <path d="M19.2721,48.0674 L1.5281,48.0674 C0.6841,48.0674 0.0001,47.3834 0.0001,46.5394 C0.0001,45.6954 0.6841,45.0104 1.5281,45.0104 L5.4091,45.0104" id="Stroke-23"></path>
            <path d="M44.526,45.2032 C44.092,45.2032 43.699,45.3642 43.389,45.6202 C43.433,45.4302 43.461,45.2332 43.461,45.0282 C43.461,43.5702 42.278,42.3872 40.819,42.3872 C40.569,42.3872 40.331,42.4332 40.101,42.4982 C39.006,40.6962 36.124,39.4062 32.731,39.4062 C29.318,39.4062 26.423,40.7102 25.341,42.5272 C25.084,42.4442 24.815,42.3872 24.53,42.3872 C23.071,42.3872 22.096,43.5662 21.877,44.9742 C21.845,45.1762 21.842,45.2112 21.831,45.3792 C21.534,45.2672 21.257,45.2032 20.823,45.2032 C19.833,45.2032 19.029,46.0062 19.029,46.9972 C19.029,47.9882 19.833,48.7902 20.823,48.7902 L32.731,48.7902 L44.526,48.7902 C45.517,48.7902 46.319,47.9882 46.319,46.9972 C46.319,46.0062 45.517,45.2032 44.526,45.2032 Z" id="Stroke-25" stroke-linejoin="round"></path>
            <line x1="24.0544" y1="15.648" x2="24.0544" y2="20.502" id="Stroke-27"></line>
            <line x1="17.7082" y1="20.502" x2="17.7082" y2="15.648" id="Stroke-29"></line>
            <line x1="17.7082" y1="31.2808" x2="17.7082" y2="23.5578" id="Stroke-31"></line>
            <line x1="24.0544" y1="23.5581" x2="24.0544" y2="31.2811" id="Stroke-33"></line>
            <line x1="5.9167" y1="41.9546" x2="5.9167" y2="34.7566" id="Stroke-35"></line>
            <line x1="36.2204" y1="34.7569" x2="36.2204" y2="39.8969" id="Stroke-37"></line>
        </g>
    </g>
</svg>