<?xml version="1.0" encoding="UTF-8"?>
<svg width="60px" height="60px" viewBox="0 0 60 60" version="1.1" xmlns="http://www.w3.org/2000/svg" xmlns:xlink="http://www.w3.org/1999/xlink">
    <!-- Generator: Sketch 60.1 (88133) - https://sketch.com -->
    <title>Icon /  Outdoor Kitchen</title>
    <desc>Created with Sketch.</desc>
    <g id="Icon-/--Outdoor-Kitchen" stroke="none" stroke-width="1" fill="none" fill-rule="evenodd" stroke-linecap="round">
        <g id="Group-19" transform="translate(2.000000, 9.000000)" stroke="#000000">
            <path d="M53.9616,33.3989 L53.9616,25.8239 C53.9616,11.8599 42.6016,0.4999 28.6376,0.4999 C14.6736,0.4999 3.3136,11.8599 3.3136,25.8239 L3.3136,33.3989 M28.6376,6.7699 C39.1606,6.7699 47.6916,15.3009 47.6916,25.8239 L47.6916,33.3989 M9.5826,33.3989 L9.5826,25.8239 C9.5826,15.3009 18.1136,6.7699 28.6376,6.7699" id="Stroke-1"></path>
            <path d="M44.1462,40.3003 L1.9212,40.3003 C1.1362,40.3003 0.5002,39.6643 0.5002,38.8793 L0.5002,34.8203 C0.5002,34.0353 1.1362,33.3993 1.9212,33.3993 L55.2652,33.3993 C56.0492,33.3993 56.6862,34.0353 56.6862,34.8203 L56.6862,38.8793 C56.6862,39.6643 56.0492,40.3003 55.2652,40.3003 L47.4872,40.3003" id="Stroke-3"></path>
            <line x1="3.3132" y1="24.6743" x2="9.5832" y2="25.8243" id="Stroke-5"></line>
            <line x1="7.7995" y1="11.4507" x2="12.8935" y2="15.0897" id="Stroke-7"></line>
            <line x1="19.4748" y1="2.2168" x2="22.2598" y2="7.8648" id="Stroke-9"></line>
            <line x1="38.1642" y1="2.3618" x2="35.5432" y2="7.8648" id="Stroke-11"></line>
            <line x1="49.4748" y1="11.4507" x2="44.5818" y2="15.3917" id="Stroke-13"></line>
            <line x1="53.9616" y1="24.6743" x2="47.6916" y2="25.8243" id="Stroke-15"></line>
            <path d="M17.4626,33.3989 C17.4626,33.3989 15.4946,30.7979 16.7336,26.4239 C16.7336,26.4239 19.6066,29.7049 20.8676,26.4239 C22.1286,23.1429 20.3796,17.0919 26.1386,14.7589 C26.1386,14.7589 25.3606,20.3729 28.5926,21.6119 C28.5926,21.6119 29.2736,17.3109 33.2106,16.5819 C33.2106,16.5819 32.1896,22.1229 35.5436,23.1429 C38.8976,24.1639 43.6356,26.8129 41.2306,33.3989" id="Stroke-17"></path>
        </g>
    </g>
</svg>