<?xml version="1.0" encoding="UTF-8"?>
<svg width="60px" height="60px" viewBox="0 0 60 60" version="1.1" xmlns="http://www.w3.org/2000/svg" xmlns:xlink="http://www.w3.org/1999/xlink">
    <!-- Generator: Sketch 60.1 (88133) - https://sketch.com -->
    <title>Icon / Plant Care</title>
    <desc>Created with Sketch.</desc>
    <g id="Icon-/-Plant-Care" stroke="none" stroke-width="1" fill="none" fill-rule="evenodd" stroke-linecap="round">
        <g id="Group-35" transform="translate(6.000000, 5.000000)" stroke="#000000">
            <path d="M11.1324,36.4046 C11.1554,36.4046 11.1744,36.3856 11.1744,36.3626 L11.1744,26.3616 C11.1744,25.3326 10.3404,24.4986 9.3124,24.4986 C8.2834,24.4986 7.4494,25.3326 7.4494,26.3616" id="Stroke-1"></path>
            <path d="M14.899,38.7362 L14.899,29.9862 C14.899,28.9582 14.065,28.1242 13.037,28.1242 C12.008,28.1242 11.174,28.9582 11.174,29.9862" id="Stroke-3"></path>
            <path d="M7.4493,32.9447 L7.4493,24.5927 C7.4493,23.5647 6.6163,22.7307 5.5873,22.7307 C4.5583,22.7307 3.7243,23.5647 3.7243,24.5927 L3.7243,34.5457" id="Stroke-5"></path>
            <path d="M15.7491,41.451 L7.2431,32.945 C6.4531,32.155 5.1731,32.155 4.3831,32.945 C3.5931,33.735 3.5931,35.015 4.3831,35.805 L7.4011,38.823" id="Stroke-7"></path>
            <path d="M11.9004,37.6024 L19.1454,40.6264 C20.3414,41.1264 21.1204,42.2954 21.1204,43.5914 L21.1204,45.7984 C21.1204,47.5724 19.6814,49.0104 17.9074,49.0104 L16.0854,49.0104 C14.5494,49.0104 13.0214,48.8004 11.5424,48.3874 L11.0414,48.2474 C7.0724,47.1364 3.7794,44.3614 2.0114,40.6394 L1.1064,38.7334 C0.3784,37.2004 0.0004,35.5234 0.0004,33.8264 L0.0004,25.8964 C0.0004,24.8674 0.8344,24.0344 1.8624,24.0344 C2.8914,24.0344 3.7244,24.8674 3.7244,25.8964 L3.7244,34.5454" id="Stroke-9"></path>
            <path d="M37.566,36.4046 C37.543,36.4046 37.524,36.3856 37.524,36.3626 L37.524,26.3616 C37.524,25.3326 38.358,24.4986 39.387,24.4986 C40.415,24.4986 41.249,25.3326 41.249,26.3616" id="Stroke-11"></path>
            <path d="M33.7999,38.7362 L33.7999,29.9862 C33.7999,28.9582 34.6329,28.1242 35.6619,28.1242 C36.6909,28.1242 37.5249,28.9582 37.5249,29.9862" id="Stroke-13"></path>
            <path d="M41.2491,32.9447 L41.2491,24.5927 C41.2491,23.5647 42.0831,22.7307 43.1111,22.7307 C44.1401,22.7307 44.9741,23.5647 44.9741,24.5927 L44.9741,34.5457" id="Stroke-15"></path>
            <path d="M32.9493,41.451 L41.4553,32.945 C42.2453,32.155 43.5263,32.155 44.3153,32.945 C45.1053,33.735 45.1053,35.015 44.3153,35.805 L41.2973,38.823" id="Stroke-17"></path>
            <path d="M36.7984,37.6024 L29.5534,40.6264 C28.3574,41.1264 27.5784,42.2954 27.5784,43.5914 L27.5784,45.7984 C27.5784,47.5724 29.0164,49.0104 30.7904,49.0104 L32.6124,49.0104 C34.1484,49.0104 35.6774,48.8004 37.1564,48.3874 L37.6564,48.2474 C41.6254,47.1364 44.9194,44.3614 46.6874,40.6394 L47.5924,38.7334 C48.3204,37.2004 48.6984,35.5234 48.6984,33.8264 L48.6984,25.8964 C48.6984,24.8674 47.8644,24.0344 46.8364,24.0344 C45.8074,24.0344 44.9734,24.8674 44.9734,25.8964 L44.9734,34.5454" id="Stroke-19"></path>
            <path d="M37.8931,12.0238 C37.9551,12.5538 37.9881,13.0918 37.9881,13.6388 C37.9881,21.1708 31.8821,27.2768 24.3491,27.2768 C16.8171,27.2768 10.7111,21.1708 10.7111,13.6388 C10.7111,6.1068 16.8171,-0.0002 24.3491,-0.0002 C28.7401,-0.0002 32.6461,2.0748 35.1411,5.2968" id="Stroke-21"></path>
            <path d="M35.8809,8.5179 C35.9719,8.7249 36.0579,8.9349 36.1389,9.1469" id="Stroke-23"></path>
            <path d="M16.8194,20.4496 C16.8194,20.4496 23.4874,22.9996 24.4744,14.3656 C24.4744,14.3656 16.4264,13.0536 16.8194,20.4496 Z" id="Stroke-25"></path>
            <path d="M32.2989,20.2303 C32.2989,20.2303 33.0779,13.1343 24.4749,14.3653 C24.4749,14.3653 25.2439,22.4823 32.2989,20.2303 Z" id="Stroke-27"></path>
            <path d="M29.5801,14.8851 C31.2411,14.4671 32.8031,13.2401 33.3681,10.2991 C33.3681,10.2991 27.5081,6.2211 24.4741,14.3651 C26.7931,14.0331 28.4251,14.3091 29.5801,14.8851 Z" id="Stroke-29"></path>
            <path d="M19.42,15.0887 C21.643,13.9167 24.474,14.3647 24.474,14.3647 C24.474,14.3647 21.783,6.6677 15.473,10.5447 C15.473,10.5447 15.983,14.3367 19.42,15.0887 Z" id="Stroke-31"></path>
            <path d="M24.4742,4.5863 C24.4742,4.5863 20.7262,6.8023 22.0122,10.7003 C23.7002,12.1553 24.4742,14.3643 24.4742,14.3653 C25.1812,12.4673 26.0422,11.2393 26.9462,10.4623 C27.4552,8.6633 27.1722,6.5063 24.4742,4.5863 Z" id="Stroke-33"></path>
        </g>
    </g>
</svg>