<?xml version="1.0" encoding="UTF-8"?>
<svg width="60px" height="60px" viewBox="0 0 60 60" version="1.1" xmlns="http://www.w3.org/2000/svg" xmlns:xlink="http://www.w3.org/1999/xlink">
    <!-- Generator: Sketch 60.1 (88133) - https://sketch.com -->
    <title>Icon / Pottery</title>
    <desc>Created with Sketch.</desc>
    <g id="Icon-/-Pottery" stroke="none" stroke-width="1" fill="none" fill-rule="evenodd" stroke-linecap="round">
        <g id="Group-15" transform="translate(6.000000, 9.000000)" stroke="#090A0A">
            <path d="M8.7029,4.375 L2.5519,4.375 C2.5519,4.375 3.3329,24.994 15.1959,37.075 L32.4029,37.075 C44.2659,24.994 45.0479,4.375 45.0479,4.375 L12.6429,4.375" id="Stroke-1"></path>
            <path d="M8.7029,4.375 L2.1629,4.375 C0.9689,4.375 -0.0001,3.407 -0.0001,2.212 L-0.0001,2.163 C-0.0001,0.968 0.9689,0 2.1629,0 L45.4369,0 C46.6309,0 47.5989,0.968 47.5989,2.163 L47.5989,2.212 C47.5989,3.407 46.6309,4.375 45.4369,4.375 L12.6429,4.375" id="Stroke-3"></path>
            <path d="M32.4563,41.4497 L15.1433,41.4497 C13.9353,41.4497 12.9553,40.4707 12.9553,39.2617 C12.9553,38.0537 13.9353,37.0747 15.1433,37.0747 L32.4563,37.0747 C33.6643,37.0747 34.6443,38.0537 34.6443,39.2617 C34.6443,40.4707 33.6643,41.4497 32.4563,41.4497 Z" id="Stroke-5"></path>
            <line x1="4.5061" y1="16.4107" x2="43.0941" y2="16.4107" id="Stroke-7"></line>
            <polyline id="Stroke-9" points="7.759 24.6724 13.103 20.5694 18.448 24.6724 23.791 20.5694 29.134 24.6724 34.479 20.5694 39.833 24.6724"></polyline>
            <line x1="9.3742" y1="28.9527" x2="38.2262" y2="28.9527" id="Stroke-11"></line>
            <path d="M3.6599,12.5679 C6.1769,12.5679 6.1769,10.3229 8.6929,10.3229 C11.2089,10.3229 11.2089,12.5679 13.7259,12.5679 C16.2429,12.5679 16.2429,10.3229 18.7589,10.3229 C21.2749,10.3229 21.2749,12.5679 23.7909,12.5679 C26.3069,12.5679 26.3069,10.3229 28.8229,10.3229 C31.3399,10.3229 31.3399,12.5679 33.8569,12.5679 C36.3779,12.5679 36.3779,10.3229 38.8989,10.3229 C41.4199,10.3229 41.4199,12.5679 43.9399,12.5679" id="Stroke-13"></path>
        </g>
    </g>
</svg>