<?xml version="1.0" encoding="UTF-8"?>
<svg width="60px" height="60px" viewBox="0 0 60 60" version="1.1" xmlns="http://www.w3.org/2000/svg" xmlns:xlink="http://www.w3.org/1999/xlink">
    <!-- Generator: Sketch 60.1 (88133) - https://sketch.com -->
    <title>Icon / Ideas</title>
    <desc>Created with Sketch.</desc>
    <g id="Icon-/-Ideas" stroke="none" stroke-width="1" fill="none" fill-rule="evenodd" stroke-linecap="round">
        <g id="Group-31" transform="translate(10.000000, 5.000000)" stroke="#000000">
            <path d="M20.0127,6.7649 L20.0127,6.7669 C13.0657,6.7689 7.4337,12.4009 7.4337,19.3489 C7.4337,21.5729 7.9227,24.4069 9.5237,26.9739 C12.6667,32.0159 13.7827,31.5469 13.7827,39.5819 L13.7827,43.6769 C13.7827,47.1179 16.5727,49.9069 20.0127,49.9069 L20.0147,49.9069 L20.0147,49.9039 C23.4557,49.9039 26.2447,47.1149 26.2447,43.6749 L26.2447,39.5789 C26.2447,31.5439 27.3607,32.0139 30.5047,26.9719 C32.1057,24.4039 32.5947,21.5699 32.5947,19.3459 C32.5947,12.3979 26.9617,6.7649 20.0127,6.7649 Z" id="Stroke-1"></path>
            <line x1="13.686" y1="36.2244" x2="26.311" y2="36.2244" id="Stroke-3"></line>
            <line x1="13.7827" y1="40.4881" x2="26.2447" y2="40.4881" id="Stroke-5"></line>
            <line x1="13.876" y1="44.7523" x2="26.152" y2="44.7523" id="Stroke-7"></line>
            <line x1="16.1963" y1="21.3719" x2="23.8003" y2="21.3719" id="Stroke-9"></line>
            <line x1="19.9985" y1="21.3719" x2="19.9985" y2="25.0229" id="Stroke-11"></line>
            <line x1="19.9985" y1="36.2244" x2="19.9985" y2="32.6744" id="Stroke-13"></line>
            <line x1="19.9985" y1="28.721" x2="19.9985" y2="28.907" id="Stroke-15"></line>
            <line x1="19.9985" y1="-0.0002" x2="19.9985" y2="2.5238" id="Stroke-17"></line>
            <line x1="5.8574" y1="5.8572" x2="7.6424" y2="7.6422" id="Stroke-19"></line>
            <line x1="0" y1="19.9983" x2="2.524" y2="19.9983" id="Stroke-21"></line>
            <line x1="5.8574" y1="34.1394" x2="7.6424" y2="32.3544" id="Stroke-23"></line>
            <line x1="34.1396" y1="34.1394" x2="32.3546" y2="32.3544" id="Stroke-25"></line>
            <line x1="39.9971" y1="19.9983" x2="37.4731" y2="19.9983" id="Stroke-27"></line>
            <line x1="34.1396" y1="5.8572" x2="32.3546" y2="7.6422" id="Stroke-29"></line>
        </g>
    </g>
</svg>