<?xml version="1.0" encoding="UTF-8"?>
<svg width="60px" height="60px" viewBox="0 0 60 60" version="1.1" xmlns="http://www.w3.org/2000/svg" xmlns:xlink="http://www.w3.org/1999/xlink">
    <!-- Generator: Sketch 60.1 (88133) - https://sketch.com -->
    <title>Icon / Plant</title>
    <desc>Created with Sketch.</desc>
    <g id="Icon-/-Plant" stroke="none" stroke-width="1" fill="none" fill-rule="evenodd" stroke-linecap="round">
        <g id="Group-5" transform="translate(9.000000, 6.000000)" stroke="#090A0A">
            <path d="M32.4183,4.6978 C32.4183,4.6978 14.3723,21.8138 11.2093,48.7908" id="Stroke-1"></path>
            <path d="M26.9071,-7.10542736e-15 C26.9071,-7.10542736e-15 30.7441,-7.10542736e-15 32.4181,0.279 C34.0931,0.558 35.7671,-0.209 36.8841,0.279 C38.0001,0.768 37.2321,1.954 38.0001,3.279 C38.7671,4.604 40.7211,6.418 38.9771,7.535 C37.2321,8.651 35.4181,9.768 33.8841,10.186 C32.3491,10.604 30.9531,10.954 31.0231,12 C31.0931,13.046 33.3251,13.256 35.4181,12.837 C37.5111,12.418 37.3721,10.884 39.2561,10.465 C41.1391,10.046 41.2091,12.418 41.2091,13.535 C41.2091,14.651 40.3721,18.418 36.8141,19.326 C33.2561,20.232 30.3251,20.279 29.5811,20.279 C28.8371,20.279 26.7441,19.814 26.2791,21.256 C25.8141,22.698 28.8841,23.86 30.7911,24.046 C32.6981,24.232 34.7441,23.442 36.5581,22.558 C38.3721,21.674 40.2321,21.869 40.0001,24.074 C39.7671,26.279 38.0461,28.418 36.7441,28.977 C35.4421,29.535 32.8371,29.907 31.3021,29.768 C29.7671,29.628 28.7441,29.209 28.1391,29.582 C27.5351,29.954 27.2561,31.163 28.4651,31.907 C29.6741,32.651 31.9531,33.349 32.9301,33.209 C33.9071,33.07 35.1631,31.768 35.9071,32.465 C36.6511,33.163 35.9531,34.604 34.8371,36 C33.7211,37.395 31.1161,40.232 27.0231,39.674 C22.9301,39.116 18.5041,35.962 15.7401,30.818 C15.7401,30.818 10.2331,32.186 5.4421,28.93 C0.6511,25.674 0.0001,21.488 0.0001,19.209 C0.0001,16.93 0.8371,14.558 2.5111,14.837 C4.1861,15.116 4.0931,17.209 5.0231,18.418 C5.9531,19.628 7.9071,22.14 8.9301,22 C9.9531,21.86 10.5581,21.048 10.0001,19.873 C9.4421,18.698 8.0471,16.977 7.3491,14.558 C6.6511,12.14 5.6281,10.046 6.0471,8.604 C6.4651,7.163 8.3251,6.232 9.1161,7.256 C9.9071,8.279 9.4421,9.814 10.0001,10.744 C10.5581,11.674 12.3721,13.674 13.4421,14.14 C14.5111,14.604 15.2561,14 15.3951,13.209 C15.5351,12.418 14.1861,11.116 13.8601,10.326 C13.5351,9.535 12.6981,7.07 12.8371,5.116 C12.9771,3.163 14.2791,2.93 15.4881,2.512 C16.6981,2.093 18.7441,1.954 18.8841,3.256 C19.0231,4.558 18.1391,5.907 18.4651,7.116 C18.7911,8.326 19.4421,10.698 20.6051,11.163 C21.7671,11.628 23.0231,10.512 22.6051,8.744 C22.1861,6.977 21.6281,5.256 22.0931,3.628 C22.5581,2 24.2321,0.884 24.2321,0.884" id="Stroke-3"></path>
        </g>
    </g>
</svg>