<?xml version="1.0" encoding="UTF-8"?>
<svg width="60px" height="60px" viewBox="0 0 60 60" version="1.1" xmlns="http://www.w3.org/2000/svg" xmlns:xlink="http://www.w3.org/1999/xlink">
    <!-- Generator: Sketch 60.1 (88133) - https://sketch.com -->
    <title>Icon / Plant Care Copy</title>
    <desc>Created with Sketch.</desc>
    <g id="Icon-/-Plant-Care-Copy" stroke="none" stroke-width="1" fill="none" fill-rule="evenodd" stroke-linecap="round">
        <g id="Group-17" transform="translate(7.000000, 7.000000)" stroke="#000000">
            <polygon id="Stroke-1" points="16.11 30.1501 46.26 30.1501 46.26 0.0001 16.11 0.0001"></polygon>
            <path d="M6.4937,10.9988 L6.4937,10.2548 C6.4937,7.4808 8.7427,5.2318 11.5167,5.2318" id="Stroke-3"></path>
            <polyline id="Stroke-4" points="9.608 3.3655 12.297 5.1275 10.548 7.7955"></polyline>
            <polygon id="Stroke-5" points="16.11 30.1501 46.26 30.1501 46.26 0.0001 16.11 0.0001"></polygon>
            <line x1="13.3658" y1="15.0749" x2="8.5748" y2="15.0749" id="Stroke-6"></line>
            <line x1="13.3658" y1="45.2253" x2="8.5748" y2="45.2253" id="Stroke-7"></line>
            <line x1="23.4239" y1="45.2253" x2="18.6329" y2="45.2253" id="Stroke-8"></line>
            <line x1="1.0347" y1="27.3425" x2="1.0347" y2="22.5515" id="Stroke-9"></line>
            <line x1="1.0347" y1="37.4934" x2="1.0347" y2="32.7024" id="Stroke-10"></line>
            <line x1="31.15" y1="37.4934" x2="31.15" y2="32.7024" id="Stroke-11"></line>
            <polyline id="Stroke-12" points="3.4586 15.0749 1.0346 15.0749 1.0346 17.5689"></polyline>
            <polyline id="Stroke-13" points="1.0001 42.7663 1.0001 45.1903 3.4941 45.1903"></polyline>
            <polyline id="Stroke-14" points="28.7262 45.2253 31.1502 45.2253 31.1502 42.7313"></polyline>
            <polyline id="Stroke-15" points="27.3414 16.4021 29.7664 18.4061 35.0644 10.9931"></polyline>
            <path d="M41.6915,14.6994 C41.6915,20.5214 36.9715,25.2404 31.1495,25.2404 C25.3285,25.2404 20.6085,20.5214 20.6085,14.6994 C20.6085,8.8774 25.3285,4.1584 31.1495,4.1584 C36.9715,4.1584 41.6915,8.8774 41.6915,14.6994 Z" id="Stroke-16"></path>
        </g>
    </g>
</svg>