<svg width="60" height="60" xmlns="http://www.w3.org/2000/svg"><g stroke="#090A0A" fill="none" fill-rule="evenodd" stroke-linecap="round"><path d="M59 24.665h0a8.167 8.167 0 00-8.167 8.167v14.441M1 24.665h0a8.167 8.167 0 018.167 8.167v14.441M9.227 42.243h41.547M9.286 34.786h41.547M47.666 34.726H12.333V20.167A8.168 8.168 0 0120.501 12H39.5a8.167 8.167 0 018.167 8.168v14.56zM22.583 30.416l4.236 4.236M12.334 20.167l7.319 7.319M25.551 27.525l4.274 4.274M13.689 15.663l8.894 8.893M37.068 30.416l4.235 4.236M18.824 12.173l15.283 15.283M39.997 27.487l7.319 7.319M24.585 12.075l12.483 12.481M47.316 20.167L32.831 34.652M45.961 15.663L26.819 34.805M29.825 23.174L18.346 34.653M40.825 12.173l-8.071 8.071M26.895 20.244L12.333 34.806M35.065 12.075l-5.24 5.239"/></g></svg>