<svg width="60" height="60" xmlns="http://www.w3.org/2000/svg"><g stroke="#090A0A" fill="none" fill-rule="evenodd" stroke-linecap="round"><path d="M1 52.437h31.797V13.728H1zM32.797 52.437h22.91V28.342h-22.91zM32.797 28.342h25.28v-3.95h-25.28z"/><path d="M48.812 23.192c-1.5 1.182-3.371 1.307-4.182.279-.81-1.028-.253-2.819 1.246-4.001 1.5-1.182 3.372-1.307 4.183-.279.81 1.028.252 2.819-1.247 4.001z"/><path d="M39.693 23.192c1.5 1.182 3.371 1.307 4.182.279.81-1.028.252-2.819-1.247-4.001-1.499-1.182-3.37-1.307-4.182-.279-.81 1.028-.252 2.819 1.247 4.001zM25.586 16.789l.002-.1a8.69 8.69 0 10-17.379 0l.002.1M16.92 21.961s-2.61 3.261-4.056 5.89c-1.224 2.227-2.763 6.354.181 10.54 2.945 4.183 3.41 4.493 3.41 4.493s5.282-1.902 6.691-7.904c1.401-5.969-4.489-10.664-6.226-13.019zM17.48 28.936s1.178 12.046-2.536 17.934M44.252 28.342v24.095M32.797 40.39h22.91"/></g></svg>