<svg width="60" height="60" xmlns="http://www.w3.org/2000/svg"><g stroke="#000" fill="none" fill-rule="evenodd" stroke-linecap="round"><path d="M30.013 11.765v.002c-6.947.002-12.58 5.634-12.58 12.582 0 2.224.49 5.058 2.09 7.625 3.144 5.042 4.26 4.573 4.26 12.608v4.095a6.23 6.23 0 006.23 6.23h.002v-.003a6.23 6.23 0 006.23-6.23V44.58c0-8.035 1.116-7.565 4.26-12.607 1.6-2.568 2.09-5.402 2.09-7.626 0-6.948-5.633-12.581-12.582-12.581zM23.686 41.224h12.625M23.783 45.488h12.462M23.876 49.752h12.276M26.196 26.372H33.8M29.998 26.372v3.651M29.998 41.224v-3.55M29.998 33.721v.186M29.998 5v2.524M15.857 10.857l1.785 1.785M10 24.998h2.524M15.857 39.139l1.785-1.785M44.14 39.139l-1.785-1.785M49.997 24.998h-2.524M44.14 10.857l-1.785 1.785"/></g></svg>