<svg width="60" height="60" xmlns="http://www.w3.org/2000/svg" xmlns:xlink="http://www.w3.org/1999/xlink"><defs><path id="a" d="M.994 0h5.082v1H.994z"/><path id="c" d="M0 41h49.884V.238H0z"/></defs><g fill="none" fill-rule="evenodd"><path stroke="#000" stroke-linecap="round" stroke-linejoin="round" d="M5.828 50.258h7.624V18.78H5.828zM9.64 18.78v5.083M9.649 26.623H9.64"/><g transform="translate(5 9.762)"><g transform="translate(6 40)"><mask id="b" fill="#fff"><use xlink:href="#a"/></mask><path stroke="#000" stroke-linecap="round" stroke-linejoin="round" mask="url(#b)" d="M.994.5h5.081"/></g><path stroke="#000" stroke-linecap="round" stroke-linejoin="round" d="M14.837 40.491v.009M8.78 4.878a4.14 4.14 0 11-8.282-.001 4.14 4.14 0 018.282.001zM14.026 8.526v27.953M19.6 6.323v30.156"/><mask id="d" fill="#fff"><use xlink:href="#c"/></mask><path stroke="#000" stroke-linecap="round" stroke-linejoin="round" mask="url(#d)" d="M41.432 40.496h7.624V9.018h-7.624zM45.244 9.018v5.083M45.235 16.861h.009M42.891 40.5h-5.084M35.046 40.491v.009"/><path d="M41.104 4.878a4.14 4.14 0 108.281-.001 4.14 4.14 0 00-8.281.001zM24.942 8.854A28.053 28.053 0 008.45 14.18V36.48h32.984v-22.3a28.053 28.053 0 00-16.492-5.326zM35.858 8.526v27.953M30.284 6.323v30.156M24.942 5.662v30.817" stroke="#000" stroke-linecap="round" stroke-linejoin="round" mask="url(#d)"/></g></g></svg>