<svg width="60" height="60" xmlns="http://www.w3.org/2000/svg"><g stroke="#000" fill="none" fill-rule="evenodd" stroke-linecap="round"><path d="M11.69 51.706l1.641 1.357 3.587-5.02M26.633 51.706l1.642 1.357 3.587-5.02M41.573 51.706l1.643 1.357 3.586-5.02M38.574 28.005a9.458 9.458 0 01-9.458 9.458c-5.224 0-9.46-4.234-9.46-9.458C19.657 21.247 22.65 6 29.117 6c6.514 0 9.458 15.247 9.458 22.005zM14.3 44.895V26.461M11.598 30.128l2.678 2.678M16.737 32.33L14.3 34.767M44.212 44.895V28.524M41.51 32.192l2.678 2.678M46.649 34.394l-2.437 2.437M29.248 44.895V23.071M26.545 30.128l2.678 2.678M31.685 32.33l-2.437 2.437M31.685 26.087l-2.437 2.437"/><path d="M19.657 28.005c0-.298.008-.617.02-.946L14.3 7.93 6 37.463h16.6l-1.077-3.835a9.403 9.403 0 01-1.866-5.623z" stroke-linejoin="round"/><path d="M44.08 17.72a10.72 10.72 0 00-6.402 2.12c.603 3.069.895 6.038.895 8.165a9.42 9.42 0 01-3.11 6.998c1.97 2.619 5.085 4.326 8.616 4.326 5.967 0 10.804-4.838 10.804-10.805S50.046 17.72 44.08 17.72z"/></g></svg>