<svg width="60" height="60" xmlns="http://www.w3.org/2000/svg"><g fill="none" fill-rule="evenodd"><path d="M13.036 23.062c-.26 0-.52-.1-.71-.29a1.046 1.046 0 01-.29-.71c0-.26.11-.51.29-.7.23-.23.58-.34.91-.27.06.01.12.03.18.05l.18.09c.05.04.1.08.15.13.09.09.16.2.21.32.06.12.08.25.08.38 0 .14-.02.26-.08.39-.05.12-.12.23-.21.32-.05.05-.1.09-.15.13l-.18.09c-.06.02-.12.04-.18.05-.07.02-.13.02-.2.02M40.036 26.062c-.13 0-.26-.02-.38-.07a1.19 1.19 0 01-.33-.22 1.046 1.046 0 01-.29-.71c0-.13.03-.26.08-.38a.988.988 0 01.54-.54c.36-.15.81-.06 1.09.22a1.036 1.036 0 01.29.7 1.046 1.046 0 01-.29.71c-.05.05-.1.09-.15.13l-.18.09-.18.06c-.07.01-.13.01-.2.01M41.536 37.062c-.13 0-.26-.02-.38-.07a1.06 1.06 0 01-.33-.22c-.04-.04-.08-.1-.12-.15a.556.556 0 01-.09-.17.697.697 0 01-.06-.19c-.01-.07-.02-.13-.02-.2 0-.13.03-.26.08-.38s.12-.23.21-.32c.23-.23.58-.34.91-.28l.18.06.18.09c.05.04.1.08.15.13.09.09.16.2.21.32a.995.995 0 01.06.58c-.01.06-.03.13-.06.19-.02.06-.05.12-.09.17-.04.05-.08.11-.12.15-.05.05-.1.09-.15.13l-.18.09c-.06.02-.12.04-.18.05-.07.02-.13.02-.2.02M21.036 45.562c-.13 0-.26-.02-.38-.07a1.19 1.19 0 01-.33-.22 1.046 1.046 0 01-.29-.71c0-.26.11-.52.29-.7.1-.1.21-.17.33-.22.37-.15.81-.06 1.09.22.18.18.29.44.29.7a1.046 1.046 0 01-.29.71.99.99 0 01-.71.29" fill="#090A0A"/><path d="M40.85 14.62a20.46 20.46 0 016.651 15.12c0 11.329-9.183 20.512-20.511 20.512-6.6 0-12.472-3.117-16.223-7.96M6.486 30.299a20.66 20.66 0 01-.007-.558C6.48 18.412 15.662 9.23 26.99 9.23c.857 0 1.703.052 2.533.154M34.647 9.022c1.534-.219 3.308 1.213 3.527 2.747.22 1.534-1.146 2.962-2.68 3.181-1.534.22-3.405-.746-3.624-2.28-.22-1.534 1.243-3.429 2.777-3.648zM12.336 36.893c0 1.772-1.533 2.638-3.305 2.638-1.773 0-4.03-.866-4.03-2.638 0-1.772 2.257-4.127 4.03-4.127 1.772 0 3.305 2.355 3.305 4.127zM29.349 24.036a47.447 47.447 0 00-2.391-9.923 46.307 46.307 0 00-2.344 9.918" stroke="#090A0A" stroke-linecap="round" stroke-linejoin="round"/><path d="M24.626 35.463a46.206 46.206 0 002.364 9.905 46.25 46.25 0 002.365-9.918M21.273 27.384a47.465 47.465 0 00-9.91 2.389 46.233 46.233 0 009.918 2.343M32.7 32.106a46.19 46.19 0 009.918-2.365 46.19 46.19 0 00-9.918-2.365M51.338 11.044v35.414M53.116 49.973H49.56a1.757 1.757 0 010-3.515h3.556a1.757 1.757 0 110 3.515zM54.46 11.044v2.818a.76.76 0 01-.76.759h-4.725a.76.76 0 01-.759-.76v-2.817" stroke="#090A0A" stroke-linecap="round" stroke-linejoin="round"/><path d="M30.5 29.986a46.293 46.293 0 007.54-11.296 46.243 46.243 0 00-11.311 7.554M23.506 29.463c-3.135 3.466-5.63 7.315-7.544 11.35a46.28 46.28 0 0011.297-7.574" stroke="#090A0A" stroke-linecap="round" stroke-linejoin="round"/><path d="M26.728 33.237a46.262 46.262 0 0011.312 7.554 46.264 46.264 0 00-7.54-11.296M27.252 26.242c-3.46-3.128-7.306-5.618-11.335-7.53a46.3 46.3 0 007.59 11.313" stroke="#090A0A" stroke-linecap="round" stroke-linejoin="round"/><path d="M30.525 29.74a3.523 3.523 0 11-7.047 0 3.523 3.523 0 017.047 0z" stroke="#090A0A" stroke-linecap="round" stroke-linejoin="round"/></g></svg>