<svg width="60" height="60" xmlns="http://www.w3.org/2000/svg" xmlns:xlink="http://www.w3.org/1999/xlink"><defs><path id="a" d="M0 49h48.735V.629H0z"/></defs><g fill="none" fill-rule="evenodd"><path stroke="#000" stroke-linecap="round" stroke-linejoin="round" d="M34.18 14.06l-9.825 18.137 20.162-4.48z"/><g transform="translate(6 4.371)"><path d="M29.12 19.71l7.19-5.18a1.4 1.4 0 00.546-1.45l-.358-1.558a1.403 1.403 0 01.52-1.431l2.588-1.96M40.776 9.731l-2.443-3.343 6.723-4.914c.8-.584 1.922-.41 2.507.39l.326.447c.585.8.41 1.921-.389 2.506l-6.724 4.914z" stroke="#000" stroke-linecap="round" stroke-linejoin="round"/><mask id="b" fill="#fff"><use xlink:href="#a"/></mask><path stroke="#000" stroke-linecap="round" stroke-linejoin="round" mask="url(#b)" d="M.5 32.268h13.413v-8.116H.5zM7.206 40.384h13.413v-8.116H7.206z"/><path stroke="#000" stroke-linecap="round" stroke-linejoin="round" mask="url(#b)" d="M20.618 40.384h13.413v-8.116H20.618zM34.031 40.384h13.413v-8.116H34.031zM13.912 48.5h13.413v-8.116H13.912z"/><path stroke="#000" stroke-linecap="round" stroke-linejoin="round" mask="url(#b)" d="M27.325 48.5h13.413v-8.116H27.325zM.5 48.5h13.413v-8.116H.5zM3.661 27.826h3.545M10.009 27.826h1.105M18.355 27.826l1.99-3.674h-6.432v8.116h13.412v-6.435zM34.888 24.152l-7.563 1.681v6.435h13.413v-8.116z"/></g></g></svg>