<svg width="60" height="60" xmlns="http://www.w3.org/2000/svg" xmlns:xlink="http://www.w3.org/1999/xlink"><defs><path id="a" d="M0 53.919h45.935V-.002H0z"/></defs><g transform="translate(7 3)" fill="none" fill-rule="evenodd"><path stroke="#000" stroke-linecap="round" stroke-linejoin="round" d="M.5 21.445h9.614v7.292H.5zM28.26 28.737h7.832v8.074h7.291V28.12a6.676 6.676 0 00-6.675-6.675H28.26"/><mask id="b" fill="#fff"><use xlink:href="#a"/></mask><path stroke="#000" stroke-linecap="round" stroke-linejoin="round" mask="url(#b)" d="M10.114 31.032H28.26V19.149H10.114zM19.187 18.853v-6.805M13.894 12.048h10.262M8.385.598s10.802-1.944 10.802 11.45c0 0-11.666-.648-10.802-11.45zM29.989.598s-10.802-1.944-10.802 11.45c0 0 11.666-.648 10.802-11.45zM43.383 49.962a3.457 3.457 0 01-6.913 0c0-1.909 3.456-9.29 3.456-9.29s3.457 7.381 3.457 9.29zM34.255 36.811h11.18"/></g></svg>