<svg width="60" height="60" xmlns="http://www.w3.org/2000/svg" xmlns:xlink="http://www.w3.org/1999/xlink"><defs><path id="a" d="M0 48h47.664V.116H0z"/></defs><g fill="none" fill-rule="evenodd"><path stroke="#000" stroke-linecap="round" stroke-linejoin="round" d="M18.606 11.416h21.571V6.5H18.606zM38.44 16.503v-5.087H20.343v5.087L8.996 25.992v22.207h40.794V25.992z"/><g transform="translate(6 5.884)"><path d="M37.686 42.315V31.438c0-7.882-6.413-14.295-14.295-14.295S9.096 23.556 9.096 31.438v10.877m14.295-21.49c5.862 0 10.614 4.751 10.614 10.613v10.877m-21.228 0V31.438c0-5.862 4.752-10.614 10.614-10.614" stroke="#000" stroke-linecap="round" stroke-linejoin="round"/><mask id="b" fill="#fff"><use xlink:href="#a"/></mask><path stroke="#000" stroke-linecap="round" stroke-linejoin="round" mask="url(#b)" d="M.499 47.5h46.664v-5.185H.499zM7.598 42.315V47.5M40.065 42.315V47.5"/><path stroke="#000" stroke-linecap="round" stroke-linejoin="round" mask="url(#b)" d="M30.785 36.033l-2.372.598.747-5.312-2.605 1.381v-3.974l-1.668.897-1.495-3.034-1.497 3.034-1.665-.897V32.7l-2.608-1.38.748 5.311-2.372-.598 1.967 3.974-1.325 2.308h13.504l-1.325-2.308z"/></g></g></svg>