<svg width="60" height="60" xmlns="http://www.w3.org/2000/svg"><g stroke="#000" fill="none" fill-rule="evenodd" stroke-linecap="round" stroke-linejoin="round"><path d="M41.275 29.43l15.388 6.654-26.581 13.381L3.5 36.085l15.388-6.655"/><path d="M56.663 39.619l-26.581 13.38L3.5 39.62M17.626 21.898c-2.271-1.322-4.144-1.682-4.144-1.682s6.74 5.744 7.033 19.281h9.543s1.18-20.042-13.001-23.5c0 0 5.568 5.125 5.568 10.532M25.437 39.497c.728-8.299-2.22-13.111-5.37-15.853"/><path d="M37.539 26.53c0-5.407 5.567-10.532 5.567-10.532-14.181 3.457-13 23.499-13 23.499h9.543c.293-13.537 7.032-19.28 7.032-19.28s-2.375.457-5.018 2.229c0 0-.938.62-1.567 1.199-3.073 2.827-6.098 7.553-5.37 15.852"/><path d="M32.155 14.816c-.035.306-.068.618-.1.937-.352 3.453-.574 7.62-.3 11.746M26.1 22.57s.978-10.616 7.19-15.07c0 0-.372 1.715-.763 4.422"/></g></svg>