<svg width="60" height="60" xmlns="http://www.w3.org/2000/svg"><g stroke="#090A0A" fill="none" fill-rule="evenodd" stroke-linecap="round"><path d="M14.703 13.375H8.552s.78 20.619 12.644 32.7h17.207c11.863-12.081 12.645-32.7 12.645-32.7H18.643M14.703 13.375h-6.54A2.163 2.163 0 016 11.212v-.049C6 9.968 6.969 9 8.163 9h43.274c1.194 0 2.162.968 2.162 2.163v.049a2.162 2.162 0 01-2.162 2.163H18.643"/><path d="M38.456 50.45H21.143a2.188 2.188 0 110-4.375h17.313a2.188 2.188 0 110 4.375zM10.506 25.411h38.588M13.759 33.672l5.344-4.103 5.345 4.103 5.343-4.103 5.343 4.103 5.345-4.103 5.354 4.103M15.374 37.953h28.852M9.66 21.568c2.517 0 2.517-2.245 5.033-2.245 2.516 0 2.516 2.245 5.033 2.245 2.517 0 2.517-2.245 5.033-2.245 2.516 0 2.516 2.245 5.032 2.245s2.516-2.245 5.032-2.245c2.517 0 2.517 2.245 5.034 2.245 2.52 0 2.52-2.245 5.042-2.245 2.52 0 2.52 2.245 5.04 2.245"/></g></svg>