<svg width="60" height="60" xmlns="http://www.w3.org/2000/svg" xmlns:xlink="http://www.w3.org/1999/xlink"><defs><path id="a" d="M.511 0h42.601v1H.511z"/><path id="c" d="M.761 0h1.593v1H.761z"/></defs><g fill="none" fill-rule="evenodd"><path d="M26.441 15.105s-1.488 2.512-2.419 4.465M18.403 22.267s-1.45 1.954-2.474 3.442M25.93 22.267s-.885 2.28-1.35 3.907M27.228 56.128V42.081M23.282 42.081v14.047M17.464 42.081v-9.817M17.464 56.128V45.802M13.518 45.802v10.326M13.518 30.042v12.04" stroke="#000" stroke-linecap="round" stroke-linejoin="round"/><g transform="translate(11 55.628)"><mask id="b" fill="#fff"><use xlink:href="#a"/></mask><path stroke="#000" stroke-linecap="round" stroke-linejoin="round" mask="url(#b)" d="M.511.5h42.601"/></g><g transform="translate(6 55.628)"><mask id="d" fill="#fff"><use xlink:href="#c"/></mask><path stroke="#000" stroke-linecap="round" stroke-linejoin="round" mask="url(#d)" d="M.761.5h1.593"/></g><path d="M45.334 19.384C33.334 13.337 30.306 4.5 30.306 4.5s-3.027 8.837-15.027 14.884c-4.911 2.474-7.47 6.195-8.778 9.728l3.69 4.41 4.216-4.41 4.279 4.41 4.186-4.41 4.279 4.41 3.155-4.41 3.156 4.41 4.279-4.41 4.186 4.41 4.279-4.41 4.215 4.41 3.69-4.41c-1.308-3.533-3.866-7.254-8.777-9.728zM33.421 15.105s1.488 2.512 2.418 4.465M42.21 22.267s1.45 1.954 2.473 3.442M32.433 22.267s.884 2.28 1.349 3.907M33.384 56.128V42.081M37.33 42.081v14.047M30.306 42.081H10.069v3.721h40.474v-3.72zM43.148 42.081v-9.817M43.148 56.128V45.802M47.094 45.802v10.326M47.094 30.042v12.04M33.384 49.133h-6.156M33.384 52.756h-6.156" stroke="#000" stroke-linecap="round" stroke-linejoin="round"/></g></svg>