<svg width="60" height="60" xmlns="http://www.w3.org/2000/svg"><g stroke="#090A0A" fill="none" fill-rule="evenodd" stroke-linecap="round"><path d="M27.881 14.187v-3.162a6.026 6.026 0 00-12.05 0v10.09M15.831 25.035v1.89M15.831 30.623v1.89M27.881 14.187v-3.162a6.025 6.025 0 0112.05 0v7.08M39.931 22.025v1.89M39.931 27.613v1.89"/><path d="M22.251 14.256c-.882 0-1.668.682-1.673 1.563v.017c0 2.657 3.27 4.812 7.303 4.812 4.034 0 7.303-2.155 7.303-4.812v-.017c-.005-.88-.79-1.563-1.672-1.563h-11.26zM32.116 28.558h-8.47a1.529 1.529 0 110-3.056h8.47a1.528 1.528 0 110 3.056zM26.137 39.757H12.41a1.528 1.528 0 110-3.056h31.318a1.529 1.529 0 110 3.056H29.625M28.877 50.011h-6.775M18.613 50.01h-6.204a1.528 1.528 0 110-3.055h20.349"/><path d="M26.272 53.067H8.528a1.528 1.528 0 110-3.057h3.881"/><path d="M51.526 50.203a1.78 1.78 0 00-1.137.417c.044-.19.072-.387.072-.592a2.642 2.642 0 00-2.642-2.64c-.25 0-.488.045-.718.11-1.095-1.802-3.977-3.092-7.37-3.092-3.413 0-6.308 1.304-7.39 3.121a2.624 2.624 0 00-.811-.14c-1.459 0-2.434 1.18-2.653 2.587a3.241 3.241 0 00-.046.405 2.613 2.613 0 00-1.008-.176 1.794 1.794 0 000 3.587h23.703a1.793 1.793 0 100-3.587z" stroke-linejoin="round"/><path d="M31.054 20.648v4.854M24.708 25.502v-4.854M24.708 36.281v-7.723M31.054 28.558v7.723M12.917 46.955v-7.198M43.22 39.757v5.14"/></g></svg>