<svg width="60" height="60" xmlns="http://www.w3.org/2000/svg"><g stroke="#000" fill="none" fill-rule="evenodd" stroke-linecap="round" stroke-linejoin="round"><path d="M36.376 54.792h17.74V29.647L28.972 54.792h4.472"/><path d="M49.18 49.856V40.9l-8.956 8.956zM54.116 38.03h-1.942M54.116 41.971h-1.942M54.116 45.913h-1.942M54.116 49.856h-1.942M31.505 19.062l8.683-8.683 4.65 4.65-16.9 16.9-4.65-4.65 5.599-5.599"/><g><path d="M44.838 15.029l-4.65-4.65 2.542-2.541 4.65 4.649z"/><path d="M47.38 12.487l-4.65-4.65 1.34-1.34a1.7 1.7 0 012.402 0l2.247 2.247a1.7 1.7 0 010 2.403l-1.34 1.34zM23.288 27.278l-2.029 6.68 6.68-2.03M34.529 16.036H13.357M50.45 33.313V16.037h-6.62M5 43.796a5.278 5.278 0 005.278 5.278H34.69M5 43.796a5.278 5.278 0 015.278-5.278V7.863A5.278 5.278 0 005 13.141v30.655zM16.583 37.524h21.406"/></g></g></svg>