<svg width="60" height="60" xmlns="http://www.w3.org/2000/svg"><g stroke="#000" fill="none" fill-rule="evenodd" stroke-linecap="round"><path d="M55.962 42.399v-7.575C55.962 20.86 44.602 9.5 30.638 9.5 16.674 9.5 5.314 20.86 5.314 34.824v7.575m25.324-26.63c10.523 0 19.054 8.532 19.054 19.055v7.575m-38.11 0v-7.575c0-10.523 8.532-19.054 19.056-19.054M46.146 49.3H3.921a1.42 1.42 0 01-1.42-1.42v-4.06a1.42 1.42 0 011.42-1.42h53.344c.784 0 1.421.635 1.421 1.42v4.06c0 .784-.637 1.42-1.42 1.42h-7.779M5.313 33.674l6.27 1.15M9.8 20.451l5.093 3.639M21.475 11.217l2.785 5.648M40.164 11.362l-2.621 5.503M51.475 20.451l-4.893 3.941M55.962 33.674l-6.27 1.15"/><path d="M19.463 42.399s-1.968-2.601-.73-6.975c0 0 2.874 3.28 4.135 0 1.26-3.281-.488-9.332 5.27-11.665 0 0-.777 5.614 2.455 6.853 0 0 .68-4.301 4.618-5.03 0 0-1.021 5.54 2.333 6.56 3.354 1.022 8.092 3.67 5.687 10.257"/></g></svg>