<svg width="60" height="60" xmlns="http://www.w3.org/2000/svg" xmlns:xlink="http://www.w3.org/1999/xlink"><defs><path id="a" d="M.5 0h46.524v1H.5z"/></defs><g fill="none" fill-rule="evenodd"><path d="M14.829 23.496c.82-7.525 7.19-13.383 14.933-13.383 7.744 0 14.114 5.858 14.934 13.383h3.623C47.482 13.986 39.486 6.5 29.762 6.5c-9.723 0-17.72 7.487-18.558 16.996h3.624zM6.5 23.496h46.524" stroke="#000" stroke-linecap="round" stroke-linejoin="round"/><g transform="translate(6 52.843)"><mask id="b" fill="#fff"><use xlink:href="#a"/></mask><path stroke="#000" stroke-linecap="round" stroke-linejoin="round" mask="url(#b)" d="M.5.5h46.524"/></g><path stroke="#000" stroke-linecap="round" stroke-linejoin="round" d="M6.5 41.307h46.524M29.762 6.5v7.271M19.658 19.49s.84-1.64 2.51-1.64c2.016 0 2.142 2.08 3.812 2.08s2.553-1.764 2.553-1.764M40.431 19.49s-.84-1.64-2.51-1.64c-2.015 0-2.142 2.08-3.811 2.08-1.67 0-2.554-1.764-2.554-1.764M30.003 38.692v14.65M8.829 23.496v29.847M12.925 23.496v17.812M16.348 38.692v14.65M20.927 38.692v14.65M25.506 38.692v14.65M26.01 23.496l-13.085 6.553M51.177 30.973v22.37M51.177 23.496v4.406M47.081 23.496v17.812M43.658 38.692v14.65M39.078 38.692v14.65M34.499 38.692v14.65M33.995 23.496l13.086 6.553"/></g></svg>