<svg width="60" height="60" xmlns="http://www.w3.org/2000/svg" xmlns:xlink="http://www.w3.org/1999/xlink"><defs><path id="a" d="M.284 0H8.74v1H.284z"/></defs><g fill="none" fill-rule="evenodd"><path stroke="#000" stroke-linecap="round" d="M5.5 24.895l2.27 19.297L5.5 54.844"/><path d="M7.187 39.243h11.766a1.9 1.9 0 011.9 1.9v3.05H7.77M20.854 44.192l1.824 10.652M55.522 24.895l-2.27 19.297 2.27 10.652" stroke="#000" stroke-linecap="round"/><path d="M53.835 39.243H42.069a1.9 1.9 0 00-1.9 1.9v3.05h13.084M40.169 44.192l-1.825 10.652M30.511 33.156v21.688" stroke="#000" stroke-linecap="round"/><g transform="translate(26 54.344)"><mask id="b" fill="#fff"><use xlink:href="#a"/></mask><path stroke="#000" stroke-linecap="round" mask="url(#b)" d="M.284.5H8.74"/></g><path d="M45.109 30.09H16.065a.697.697 0 00-.698.698v1.67c0 .385.312.698.698.698h29.044a.699.699 0 00.698-.698v-1.67a.698.698 0 00-.698-.698z" stroke="#000" stroke-linecap="round"/><path d="M34.89 21.278h-8.606S24 26.885 27.828 30.09h5.518c3.827-3.205 1.544-8.812 1.544-8.812zM30.587 21.278V10.953M30.587 18.585s.333-5.073-5.674-6.34c0 0-.201 5.205 5.674 6.34zM30.587 10.953s.333-5.073-5.674-6.34c0 0-.201 5.205 5.674 6.34zM30.515 14.613s-.333-5.073 5.674-6.342c0 0 .2 5.207-5.674 6.342z" stroke="#000" stroke-linecap="round"/></g></svg>