<svg width="60" height="60" xmlns="http://www.w3.org/2000/svg"><g stroke="#000" fill="none" fill-rule="evenodd" stroke-linecap="round"><path d="M39.421 14.466c-3.958 0-7.72 1.261-10.878 3.646a2.426 2.426 0 01-1.45.488c-.386 0-.765-.096-1.097-.278a16.226 16.226 0 00-9.638-1.875c-7.445.844-13.442 6.86-14.26 14.305-.507 4.612.966 9.226 4.042 12.658a16.261 16.261 0 0012.094 5.404c2.627 0 5.24-.647 7.553-1.87.436-.23.91-.352 1.37-.352.361 0 .893.078 1.386.45a17.913 17.913 0 0010.878 3.646c5.002 0 9.66-1.995 13.111-5.617 3.451-3.62 5.22-8.373 4.978-13.381-.445-9.3-8.086-16.86-17.394-17.211a17.975 17.975 0 00-.695-.013zm0 3.366c.188 0 .378.004.568.01 7.554.286 13.798 6.458 14.16 14.009.406 8.473-6.344 15.471-14.728 15.471a14.625 14.625 0 01-8.849-2.966 5.632 5.632 0 00-3.415-1.13 6.323 6.323 0 00-2.943.742 12.752 12.752 0 01-5.98 1.48c-7.588 0-13.643-6.567-12.79-14.329.646-5.887 5.41-10.661 11.293-11.328a13.338 13.338 0 011.497-.085c2.228 0 4.321.57 6.146 1.569a5.652 5.652 0 002.712.691 5.78 5.78 0 003.48-1.169 14.624 14.624 0 018.85-2.965h0z"/><path d="M10.406 28.876c.464 0 .918.479.918.479a1.278 1.278 0 001.845 0 1.279 1.279 0 011.845 0l.004.004a1.285 1.285 0 001.842 0c.48-.483.927-.483.927-.483M27.157 27.288c.465 0 .919.48.919.48a1.278 1.278 0 001.845 0 1.279 1.279 0 011.844 0l.003.003a1.284 1.284 0 001.843 0c.48-.483.927-.483.927-.483M17.986 35.135c.464 0 .918.479.918.479a1.279 1.279 0 001.846 0 1.278 1.278 0 011.843 0l.004.004a1.284 1.284 0 001.843 0c.479-.483.926-.483.926-.483M40.494 32.384c.464 0 .918.479.918.479a1.279 1.279 0 001.846.001 1.278 1.278 0 011.843-.001l.004.004a1.284 1.284 0 001.843 0c.48-.483.926-.483.926-.483M32.882 39.265c.464 0 .918.48.918.48a1.279 1.279 0 001.846 0 1.278 1.278 0 011.843 0l.004.003a1.285 1.285 0 001.843 0c.479-.483.926-.483.926-.483M43.66 9h-1.677a2.817 2.817 0 00-2.817 2.817v17.534M51.057 9H49.38a2.817 2.817 0 00-2.817 2.817v17.534M39.166 23.089h7.396M39.166 26.242h7.396"/></g></svg>