<svg width="60" height="60" xmlns="http://www.w3.org/2000/svg"><g fill="none" fill-rule="evenodd"><path d="M41.873 29.479c0 6.339-5.14 11.479-11.478 11.479-6.34 0-11.48-5.14-11.48-11.48 0-6.338 5.14-11.478 11.48-11.478 6.339 0 11.478 5.14 11.478 11.479z" stroke="#090A0A" stroke-linecap="round"/><path d="M34.107 40.34l8.805 8.81a18.027 18.027 0 01-12.517 5.03 18.028 18.028 0 01-12.518-5.03l8.805-8.81M36.267 29.479a5.872 5.872 0 11-11.746 0 5.874 5.874 0 0111.746 0zM28.021 18.246a5.874 5.874 0 114.746 0M29.246 40.905l-3.357 12.731M31.543 40.905L34.9 53.636M21.934 21.728h-5.208A9.725 9.725 0 007 31.454v5.899h14.934M13.326 31.283v6.07M38.855 21.728h5.208a9.725 9.725 0 019.726 9.726v5.899H38.855M47.463 31.283v6.07M21.27 12.623h3.251" stroke="#090A0A" stroke-linecap="round"/><path d="M30.395 13.626c-.13 0-.26-.03-.38-.08a.911.911 0 01-.33-.22c-.18-.18-.29-.44-.29-.7 0-.13.02-.26.08-.39.05-.12.12-.23.21-.32.1-.09.2-.17.33-.22.37-.15.81-.06 1.09.22.09.09.16.2.21.32.05.13.08.26.08.39a1.009 1.009 0 01-1 1M30.395 30.476c-.13 0-.26-.02-.38-.07a1.12 1.12 0 01-.33-.22c-.18-.19-.29-.45-.29-.71 0-.06.01-.13.02-.19.01-.07.03-.13.06-.19.02-.06.05-.12.09-.17.03-.06.08-.11.12-.16.09-.09.2-.16.33-.21a1 1 0 01.76 0c.12.05.23.12.33.21.04.05.08.1.12.16.04.05.07.11.09.17.03.06.05.12.06.19.01.06.02.13.02.19 0 .26-.11.52-.29.71-.1.09-.21.16-.33.22-.12.05-.25.07-.38.07" fill="#090A0A"/></g></svg>