<svg width="60" height="60" xmlns="http://www.w3.org/2000/svg"><g stroke="#000" fill="none" fill-rule="evenodd" stroke-linecap="round"><path d="M16.318 7H8v8.317M52.79 15.318V7h-8.318M44.473 51.79h8.318v-8.317M8 43.473v8.318h8.318M30.395 24.33l-9.967-5.417M30.395 36.191l-13.621-7.402"/><g><path d="M30.395 45.39s13.646 0 13.646-15.92c0-7.908-6.8-15.456-13.645-21.052-6.847 5.596-13.647 13.144-13.647 21.052 0 15.92 13.646 15.92 13.646 15.92zM30.396 24.33l9.967-5.417M30.396 36.19l13.619-7.401M30.396 8.419v42.953"/></g></g></svg>