<svg width="60" height="60" xmlns="http://www.w3.org/2000/svg"><g stroke="#000" fill="none" fill-rule="evenodd" stroke-linecap="round"><path d="M17.132 41.405a.042.042 0 00.042-.042V31.362a1.863 1.863 0 10-3.725 0"/><path d="M20.899 43.736v-8.75a1.862 1.862 0 00-3.725 0M13.45 37.945v-8.352a1.862 1.862 0 10-3.726 0v9.953"/><path d="M21.75 46.451l-8.507-8.506a2.022 2.022 0 10-2.86 2.86l3.018 3.018"/><path d="M17.9 42.602l7.245 3.024a3.214 3.214 0 011.975 2.965v2.207a3.213 3.213 0 01-3.213 3.212h-1.822a16.89 16.89 0 01-4.543-.623l-.5-.14a14.25 14.25 0 01-9.03-7.608l-.906-1.906A11.442 11.442 0 016 38.826v-7.93a1.862 1.862 0 113.724 0v8.65M43.566 41.405a.042.042 0 01-.042-.042V31.362a1.863 1.863 0 113.725 0"/><path d="M39.8 43.736v-8.75a1.862 1.862 0 113.725 0M47.25 37.945v-8.352a1.862 1.862 0 013.724 0v9.953"/><path d="M38.95 46.451l8.505-8.506a2.022 2.022 0 112.86 2.86l-3.018 3.018"/><path d="M42.798 42.602l-7.245 3.024a3.214 3.214 0 00-1.975 2.965v2.207a3.212 3.212 0 003.212 3.212h1.822c1.536 0 3.065-.21 4.544-.623l.5-.14a14.251 14.251 0 009.031-7.608l.905-1.906a11.442 11.442 0 001.106-4.907v-7.93a1.862 1.862 0 10-3.725 0v8.65M43.893 17.024c.062.53.095 1.068.095 1.615 0 7.532-6.106 13.638-13.639 13.638-7.532 0-13.638-6.106-13.638-13.638s6.106-13.64 13.638-13.64c4.391 0 8.297 2.076 10.792 5.298M41.88 13.518c.092.207.178.417.259.629"/><path d="M22.82 25.45s6.667 2.55 7.654-6.084c0 0-8.048-1.312-7.655 6.084zM38.299 25.23s.779-7.096-7.824-5.865c0 0 .769 8.117 7.824 5.865z"/><path d="M35.58 19.885c1.661-.418 3.223-1.645 3.788-4.586 0 0-5.86-4.078-8.894 4.066 2.32-.332 3.951-.056 5.106.52z"/><path d="M25.42 20.089c2.223-1.172 5.054-.724 5.054-.724s-2.691-7.697-9.001-3.82c0 0 .51 3.792 3.947 4.544z"/><path d="M30.474 9.586s-3.748 2.216-2.462 6.114c1.688 1.455 2.462 3.664 2.462 3.665.707-1.898 1.568-3.126 2.472-3.903.51-1.799.226-3.956-2.472-5.876z"/></g></svg>