<svg width="60" height="60" xmlns="http://www.w3.org/2000/svg"><g stroke="#000" fill="none" fill-rule="evenodd" stroke-linecap="round"><path d="M23.11 37.15h30.15V7H23.11zM13.494 17.999v-.744a5.023 5.023 0 015.023-5.023"/><path d="M16.608 10.366l2.689 1.762-1.749 2.668M23.11 37.15h30.15V7H23.11zM20.366 22.075h-4.791M20.366 52.225h-4.791M30.424 52.225h-4.791M8.035 34.343v-4.791M8.035 44.493v-4.791M38.15 44.493v-4.791M10.459 22.075H8.035v2.494M8 49.766v2.424h2.494M35.726 52.225h2.424v-2.494"/><path d="M34.341 23.402l2.425 2.004 5.298-7.413"/><path d="M48.691 21.7c0 5.821-4.72 10.54-10.542 10.54-5.82 0-10.54-4.719-10.54-10.54 0-5.823 4.72-10.542 10.54-10.542 5.823 0 10.543 4.72 10.543 10.541z"/></g></svg>