<svg width="60" height="60" xmlns="http://www.w3.org/2000/svg"><g stroke="#090A0A" fill="none" fill-rule="evenodd" stroke-linecap="round"><path d="M41.418 10.698S23.372 27.814 20.21 54.79M35.907 6s3.837 0 5.511.279c1.675.279 3.35-.488 4.466 0 1.116.489.348 1.675 1.116 3 .767 1.325 2.721 3.139.977 4.256-1.745 1.116-3.559 2.233-5.093 2.651-1.535.418-2.93.768-2.86 1.814.07 1.046 2.301 1.256 4.394.837 2.093-.419 1.954-1.953 3.838-2.372 1.883-.419 1.953 1.953 1.953 3.07 0 1.116-.837 4.883-4.395 5.791-3.558.906-6.489.953-7.233.953-.744 0-2.837-.465-3.302.977-.465 1.442 2.605 2.604 4.512 2.79 1.907.186 3.953-.604 5.767-1.488 1.814-.884 3.674-.689 3.442 1.516-.233 2.205-1.954 4.344-3.256 4.903-1.302.558-3.907.93-5.442.791-1.535-.14-2.558-.559-3.163-.186-.604.372-.883 1.581.326 2.325 1.21.744 3.488 1.442 4.465 1.302.977-.139 2.233-1.441 2.977-.744.744.698.046 2.139-1.07 3.535-1.116 1.395-3.72 4.232-7.814 3.674-4.093-.558-8.519-3.712-11.283-8.856 0 0-5.507 1.368-10.298-1.888C9.652 31.674 9 27.488 9 25.209s.837-4.651 2.511-4.372c1.675.279 1.582 2.372 2.512 3.581.93 1.21 2.884 3.722 3.907 3.582 1.023-.14 1.628-.952 1.07-2.127-.558-1.175-1.953-2.896-2.65-5.315-.699-2.418-1.722-4.512-1.303-5.954.418-1.441 2.278-2.372 3.07-1.348.79 1.023.325 2.558.883 3.488.558.93 2.372 2.93 3.442 3.396 1.07.464 1.814-.14 1.953-.931.14-.791-1.209-2.093-1.535-2.883-.325-.791-1.162-3.256-1.023-5.21.14-1.953 1.442-2.186 2.651-2.604 1.21-.419 3.256-.558 3.396.744.14 1.302-.745 2.651-.419 3.86.326 1.21.977 3.582 2.14 4.047 1.162.465 2.418-.651 2-2.419-.419-1.767-.977-3.488-.512-5.116.465-1.628 2.14-2.744 2.14-2.744"/></g></svg>