<?xml version="1.0" standalone="no"?>
<!DOCTYPE svg PUBLIC "-//W3C//DTD SVG 20010904//EN"
 "http://www.w3.org/TR/2001/REC-SVG-20010904/DTD/svg10.dtd">
<svg version="1.0" xmlns="http://www.w3.org/2000/svg"
 width="260.000000pt" height="260.000000pt" viewBox="0 0 260.000000 260.000000"
 preserveAspectRatio="xMidYMid meet">
<metadata>
Created by potrace 1.11, written by Peter Selinger 2001-2013
</metadata>
<g transform="translate(0.000000,260.000000) scale(0.100000,-0.100000)"
fill="#000000" stroke="none">
<path d="M3 2273 c3 -16 10 -55 16 -88 6 -33 12 -72 15 -88 12 -69 22 -76 139
-93 26 -3 50 -11 54 -17 3 -5 2 -8 -3 -5 -9 6 -141 -16 -150 -25 -8 -7 35
-107 72 -168 27 -45 114 -140 126 -139 2 1 39 9 83 20 44 10 81 17 82 16 2 -1
-25 -18 -59 -37 -34 -19 -63 -39 -65 -44 -4 -12 164 -119 247 -158 87 -40 104
-42 147 -16 l38 22 -28 -30 c-16 -17 -25 -33 -20 -36 20 -12 106 -20 197 -19
60 1 102 -2 106 -9 4 -5 -8 -47 -26 -92 -104 -260 -75 -547 79 -784 50 -78
148 -183 170 -183 17 0 40 24 30 33 -3 4 -7 38 -9 76 -3 70 9 126 41 193 21
42 25 32 -66 144 -66 82 -119 159 -119 173 0 17 53 49 161 95 171 73 195 92
271 219 75 126 102 151 199 189 63 24 192 32 284 17 162 -26 364 -90 514 -163
51 -24 71 -26 71 -6 0 12 -185 102 -297 144 -94 36 -147 53 -266 87 -84 24
-118 48 -162 115 -19 29 -48 63 -64 77 -61 51 -188 60 -269 18 -39 -20 -132
-107 -132 -123 0 -27 -63 12 -280 175 -165 122 -265 190 -305 206 -33 12 -73
29 -90 36 -73 32 -725 295 -730 295 -4 0 -4 -12 -2 -27z"/>
</g>
</svg>
