<?xml version="1.0" encoding="UTF-8"?>
<svg width="26px" height="20px" viewBox="0 0 26 20" version="1.1" xmlns="http://www.w3.org/2000/svg" xmlns:xlink="http://www.w3.org/1999/xlink">
    <!-- Generator: Sketch 60.1 (88133) - https://sketch.com -->
    <title>Path</title>
    <desc>Created with Sketch.</desc>
    <g id="Visual-Design" stroke="none" stroke-width="1" fill="none" fill-rule="evenodd">
        <g id="About-Us---Who-We-are" transform="translate(-40.000000, -143.000000)" fill="#090A0A">
            <g id="About-Menu-/-Who-We-Are" transform="translate(40.000000, 143.000000)">
                <path d="M25.9338397,10.213343 C25.9338397,10.213343 25.851019,10.1614766 25.6834773,10.0697615 C25.0872632,9.74306602 23.2734422,8.74922239 19.8879281,7.85689788 C19.7422397,7.81610048 19.6134954,7.75790884 19.5047042,7.68406238 C19.0869584,7.40037814 18.8796691,7.0705201 18.6787141,6.75173112 C18.4334191,6.36146762 18.2014261,5.99270973 17.642426,5.7831882 C16.3237873,5.28729423 15.2363498,5.79947554 14.6558131,6.44179738 C14.507591,6.60577763 14.3622192,6.77908751 14.2081379,6.97105667 C14.2081379,6.97105667 13.9818457,7.35926448 13.7633131,7.20746021 C13.6831845,7.15148238 9.63352112,4.12662403 8.9921753,3.64749178 C8.93485007,3.6046387 8.87356592,3.57016647 8.8073727,3.54328447 L0.122125143,0.00671919817 C0.0575154907,-0.0196884209 -0.0108947296,0.0356568885 0.00145711574,0.104443202 L0.40336716,2.33738924 C0.40336716,2.33738924 0.419836287,2.43764331 0.457841965,2.60905564 L0.510574843,2.7236995 L2.4054746,3.10099638 L0.671623903,3.39843789 L0.729265848,3.56668763 C1.0453464,4.4920612 1.63934348,5.74349771 2.67293956,6.44970386 L2.72836451,6.48733867 L4.55057841,6.06165417 L3.01039831,6.95856444 L3.2004267,7.09518829 C3.28498933,7.15559374 5.30024041,8.58761409 6.5944921,8.91415142 L6.65435104,8.92933184 L7.47638218,8.45731542 L6.85530606,9.1132364 L7.10614354,9.17664631 C7.14209057,9.18550156 7.9976934,9.39739503 9.12772889,9.31975347 C9.29273687,9.30868441 9.46344571,9.29002513 9.61182621,9.26614758 L9.76479907,9.26931017 C9.86978975,9.25966428 10.0032847,9.26345938 10.047783,9.33667332 C10.15024,9.507295 9.8143648,10.0259596 9.7101659,10.3529713 C9.59044802,10.6583193 9.48498226,10.9741038 9.39994456,11.2957391 C8.56445307,14.45564 9.59044802,17.7798375 12.0191692,19.920594 L12.0820369,19.9574382 C12.2869509,20.0773003 12.5449144,19.9297655 12.5445977,19.6925714 C12.3879826,19.1196683 12.2350098,18.0121296 12.9059683,16.8871967 C12.9186369,16.8661655 12.9444491,16.8260006 12.972795,16.7823569 C13.0423137,16.6759357 13.0312287,16.5361493 12.9453992,16.4425367 C12.9214873,16.4164453 12.8980505,16.3906702 12.8776224,16.3677414 C12.5605917,16.0143221 11.7334932,15.0593783 11.0657018,14.0019666 L11.0063179,13.9025032 C10.991274,13.5141373 11.7919269,13.1932926 12.5670844,12.8825682 C13.2532452,12.607423 13.9628429,12.3229481 14.3959493,11.9170298 C15.1559045,11.2046566 15.5603482,10.2620469 15.5779259,10.2204588 C15.6107058,10.1407616 16.4178513,8.27009015 19.5151557,8.53653828 C22.6997148,8.80962785 25.7501456,10.4581274 25.7805501,10.4750473 L25.781817,10.4729916 C25.7913184,10.4777355 25.7995529,10.4840606 25.8103212,10.486907 C25.8909249,10.5082545 25.9737456,10.460025 25.9951238,10.3793789 C26.0119097,10.3154946 25.9840388,10.2514522 25.931781,10.2168219 L25.9338397,10.213343 Z" id="Fill-28"></path>
            </g>
        </g>
    </g>
</svg>