<svg viewBox="0 0 256 199" xmlns="http://www.w3.org/2000/svg"><g fill="#FFFFFE" fill-rule="evenodd"><path d="M25.04 196.59h3.29v-43.14h-3.29zM4.53 157.13h3.34c1.56 0 3 .28 3 2.34 0 1.18-.65 1.68-.94 1.84-.33.2-1.1.32-2.06.32H4.53v-4.5zm.05 7.7h2.55c2.73 0 3.1.58 3.35 2.85l.05.41c.18 1.4.41 3.3.79 4.41l.12.38h3.83l-.26-.73c-.66-1.9-.83-3.37-1.08-5.49-.2-1.7-.7-2.74-1.78-3.37a4.98 4.98 0 002.42-4.32c0-1.7-.81-3.2-2.23-4.1-1.44-.92-3.44-.92-4.4-.92H1.03v18.93h3.56v-8.04zM7.12 196.92c4.61 0 7.6-2.4 7.6-6.1 0-1.76-.71-3.15-2.03-4.02-1.07-.71-1.55-.84-5.32-1.8l-.62-.16c-2.18-.52-2.78-.97-2.78-2.1 0-1.46 1.27-2.33 3.4-2.33 2.76 0 3.14 1.25 3.2 2.19l.02.52h3.1l.58-.07-.03-.59a5.03 5.03 0 00-1.23-3.3c-1.55-1.68-4.06-1.93-5.42-1.93-3.66 0-7.34 1.78-7.34 5.76 0 1.66.72 3.03 2.09 3.96 1 .68 2.26.99 5.03 1.67 2.6.64 3.66.96 3.66 2.47 0 .61-.26 2.63-3.61 2.63-3.62 0-3.7-1.8-3.75-3l-.02-.53H0v.55c0 .8 0 2.46 1.16 3.95 1.51 1.94 4.38 2.23 5.96 2.23M107.2 153.55h-8.34l-10.82 34.03-9.8-34.03H67.67l-10.92 34.37-10.4-34.37H37.5l14.27 43.14h9.54l11.26-35.5 10.14 35.5h9.28l15.21-43.14M134.63 187.06c-1.98 3.01-5.07 4.64-9.2 4.64-7.21 0-8.93-4.72-8.93-7.47 0-8.77 12.29-8.77 15.55-8.77 1.98 0 3.18.09 4.64.26-.17 6.01-.25 8.42-2.06 11.34zm9.63-1.2l.34-20.62c0-1.99-.09-4.05-1.46-6.62-2.32-4.39-9.03-6.37-15.3-6.37-4.55 0-10.66 1.04-13.92 4.65-2.5 2.92-2.75 5.93-3.01 8.16h8.08c.09-1.72.51-7.3 8.68-7.3 2.32 0 5.84.68 7.47 2.83 1.55 1.9 1.55 4.21 1.55 9.54-2.49-.17-3.78-.26-5.84-.26-3.44 0-10.32.26-14.95 2.84-6.36 3.7-7.57 9.2-7.57 12.63 0 7.13 5.33 12.72 15.21 12.72 3.61 0 9.46-.68 13.33-7.82 0 2.23.17 4.3.77 6.45h7.3c-.6-4.38-.68-10.14-.68-10.83zM156.73 196.69h8.08v-61.97h-8.08zM206.23 176.06c-2.57-2.4-5.15-3.1-17.1-5.93-2.23-.6-6.1-1.55-6.1-5.5 0-6.19 7.56-6.19 8.76-6.19 2.93 0 8.6.52 8.34 7.05h8.25c0-1.8 0-3.86-1.12-6.27-2.57-5.16-10.13-6.7-15.55-6.7-9.97 0-16.85 5.15-16.85 13.06 0 9.02 7.57 10.82 16.6 12.89 6.44 1.46 9.44 2.24 9.44 6.44 0 1.47-.51 2.93-1.37 4.04-1.72 2.15-4.21 2.75-7.56 2.75-7.82 0-9.54-4.55-9.46-7.82h-8.5c-.09 10.4 8.07 14 16.84 14 4.47 0 9.02-.6 12.8-2.91a13.07 13.07 0 005.85-10.92c0-2.74-.86-5.75-3.27-7.99M247.23 196.69h8.26V169.7c0-6.27-.6-8.33-1.47-10.06-2.49-5.24-9.02-6.87-13.57-6.87-6.02 0-11.35 2.58-14.01 7.13v-25.18h-8.17v61.97h8.17v-22.86c0-2.66 0-6.7 1.37-9.11a11.15 11.15 0 0110.14-5.76c9.28 0 9.28 8.34 9.28 12.2v25.53M154.9 44.75a2.4 2.4 0 10-1.23 4.64 2.4 2.4 0 001.23-4.64"/><path d="M168.19 54.65c-4.15-.11-7.65.37-10.6 1.19-1.56.43-3.17.69-4.78.54a8.4 8.4 0 112.99-16.5l.18.04c.6.16 1.23.36 1.86.6 3.05 1.14 4.34 3.2 5.83 5.57 1.3 2.07 2.79 4.4 5.6 6.44 1.08.91.74 2.2-1.08 2.12zM143.1 67.13c-.03.06-2.74 6.4-7.67 10.83l-.44.27c-5.33 2.1-11.23 3.3-12.62 1.25-1.2-1.74-.27-6.45.54-10.6.88-4.54 1.65-8.52.37-10.56.9-.16 1.81-.3 2.79-.39 4.1-.39 6.2-3.23 8.84-6.83.64-.87 1.32-1.8 2.09-2.78a75.68 75.68 0 013.36-4 15.28 15.28 0 016.58-4.22 10.32 10.32 0 00-3.38 5.28 10.41 10.41 0 007.4 12.71c.24.07.47.1.7.15-6.32 3.57-8.43 8.56-8.56 8.9zM124.38 83.6c-4.16 1.67-8.17 3.28-10.19 5.42a.83.83 0 01-1.32-.17c-3.02-5.41-4.62-9.87-4.66-13.02-.1-8.57 3.71-14.13 11.35-16.6.6-.2 1.47-.4 1.88-.06 1.14.97.24 5.6-.49 9.33-.97 4.97-1.89 9.67-.22 12.11.59.87 1.48 1.4 2.55 1.68 1.15.3 2.53.3 3.98.13-.95.4-1.92.8-2.88 1.18zm1.33 26.2c.2.22.22.56.06.82a25.19 25.19 0 00-2.9 6.75.55.55 0 01-.95.23c-11.65-13.21-13.3-22.39-13.32-22.5 0 0 .3 12.78 13.33 27.12.1.1.15.25.14.39-.1 2.09.08 4 .36 5.62.12.7-.71 1.12-1.22.63a54.5 54.5 0 01-15-53.36v-.03.38c.05 4.33 2.52 10.4 7.33 18.04a127.9 127.9 0 0012.17 15.9zm-19.1-50.17l-1.06-.01c-1.1.16-2.17.28-3.2.35-4.75.32-8.79-.18-10.96-.55l11.03-11.67-16.51 9.5c-6.74-1.86-16.55-8.32-20.01-10.7L84.85 35.5l-24.1 5.63c-5.74-4.1-9.26-11.08-11.28-16.64L69 21.13 47.2 16.65l-.2-1.07-2-11.16a.58.58 0 01.79-.65L99.15 25.5c.52.21 1 .49 1.45.83l25.52 19.25h.01l1.13.76c2.4 1.77 3.58 3.5 3.5 5.18-.03.43-.13.83-.3 1.21-.12.3-.17.54-.46.63-.23.07-.6-.27-.9-.5-16.07-12.73-39.26-16.11-40.28-16.26 0 0 21.5 5.64 37.06 17.77.5.4 1.07.76.96 1.08-.11.33-.4.44-.95.49-2.64.25-5 .74-7.12 1.45l-.14.04v.01a18.62 18.62 0 00-7.98 5.03c-.04-.51-.14-1-.4-1.43-.65-1.1-1.92-1.57-3.64-1.4zm106.51 8.25l.02-.03s-.55-.34-1.65-.94c-3.93-2.16-15.87-8.71-38.16-14.6a8.6 8.6 0 01-2.52-1.13c-2.75-1.87-4.12-4.05-5.44-6.15-1.62-2.58-3.14-5-6.83-6.39-8.68-3.27-15.84.1-19.66 4.34a77.58 77.58 0 00-2.95 3.5s-1.49 2.55-2.93 1.55c-.52-.37-27.19-20.31-31.41-23.47a5.43 5.43 0 00-1.22-.69L43.2.55a.58.58 0 00-.8.65l2.65 14.72s.1.66.36 1.8l.35.75 12.47 2.49-11.41 1.96.38 1.1c2.08 6.1 5.99 14.36 12.8 19.02l.36.24 12-2.8-10.15 5.91 1.26.9c.55.4 13.82 9.84 22.34 12l.4.1 5.41-3.12-4.09 4.33 1.65.42c.24.06 5.87 1.45 13.31.94a35.7 35.7 0 003.19-.35l1 .02c.7-.07 1.58-.04 1.87.44.67 1.13-1.54 4.55-2.22 6.7a56.5 56.5 0 0015.2 63.09l.41.24a2.02 2.02 0 003.05-1.74 23.75 23.75 0 012.82-19.2c.46-.7.38-1.62-.18-2.23a125.72 125.72 0 01-12.38-16.1l-.39-.65c-.1-2.56 5.17-4.68 10.28-6.73 4.52-1.81 9.19-3.69 12.04-6.36a36.8 36.8 0 007.78-11.19c.22-.53 5.53-12.86 25.93-11.1 20.96 1.8 41.05 12.67 41.25 12.78v-.02c.07.04.12.08.2.1a.99.99 0 00.8-1.78z"/></g></svg>