<svg id="ebf151bd-a1ca-4566-a59f-b357757771df" data-name="Layer 1" xmlns="http://www.w3.org/2000/svg" width="5.045in" height="1.249in" viewBox="0 0 363.26 89.923"><title>rswalsh-header-logo-w-bird-color</title><path d="M163.906,9.594a.881.881,0,0,0,.185.02.892.892,0,0,0,.807-.97.882.882,0,0,0-.679-.775l0-.023s-.565-.12-1.678-.291c-3.965-.61-16.026-2.463-36.592-.579a7.7,7.7,0,0,1-2.473-.185,16.559,16.559,0,0,1-6.464-3.507c-2.148-1.67-4.179-3.248-7.7-3.283A15.705,15.705,0,0,0,94.1,9.687c-.49,1.21-.945,2.465-1.41,3.842,0,0-.469,2.612-1.987,2.209-.558-.148-29.116-8.759-33.64-10.123a4.924,4.924,0,0,0-1.235-.205L.543,3.321a.522.522,0,0,0-.471.785L6.814,15.687s.294.524.852,1.4l.524.529,11.263-1.731-9.006,5.151.66.818c3.622,4.5,9.445,10.242,16.6,12.074l.383.1,9.238-6.042L30.607,36.07l1.329.374c.591.165,14.655,4.043,22.488,3.242l.362-.037,3.6-4.28-2.114,4.894,1.517-.154a41.585,41.585,0,0,0,11.493-3.287c.891-.4,1.8-.843,2.574-1.275l.854-.292c.562-.265,1.31-.513,1.705-.2.913.739.1,4.3.183,6.321a51.127,51.127,0,0,0,.187,5.859,50.617,50.617,0,0,0,31.956,42.577l.423.077a1.812,1.812,0,0,0,2.028-2.4,21.268,21.268,0,0,1-3.67-16.3c.027-.143.089-.418.159-.717a1.644,1.644,0,0,0-.839-1.831c-.186-.1-.369-.193-.528-.278A112.514,112.514,0,0,1,89.49,58.893l-.53-.432c-.87-2.124,2.919-5.522,6.586-8.812,3.246-2.912,6.6-5.924,8.182-9.051a32.967,32.967,0,0,0,3.121-11.8c.02-.509.71-12.52,18.413-17.3,18.2-4.914,38.438-1.925,38.642-1.894Z"/><rect x="141.794" y="29.787" width="3.149" height="41.368" fill="#00ae8d"/><path d="M122.162,40.7h2.452c2.616,0,2.963.551,3.213,2.733l.049.394a26.019,26.019,0,0,0,.755,4.23l.119.363h3.669l-.249-.708a22.252,22.252,0,0,1-1.038-5.258c-.184-1.642-.674-2.628-1.7-3.235a4.591,4.591,0,0,0,.96-.734,4.776,4.776,0,0,0,1.362-3.407,4.542,4.542,0,0,0-2.138-3.926,8.045,8.045,0,0,0-4.217-.89h-6.642V48.421h3.409Zm-.046-7.387h3.207c1.494,0,2.877.27,2.877,2.239a1.906,1.906,0,0,1-.9,1.77,4.627,4.627,0,0,1-1.977.3h-3.207Z"/><path d="M124.6,71.478c4.421,0,7.281-2.3,7.281-5.859a4.371,4.371,0,0,0-1.944-3.851c-1.019-.682-1.484-.8-5.1-1.725l-.589-.151c-2.094-.5-2.667-.931-2.667-2.016,0-1.4,1.217-2.239,3.256-2.239,2.647,0,3.018,1.2,3.07,2.1l.026.5H130.9l.563-.067-.036-.566a4.821,4.821,0,0,0-1.178-3.171c-1.484-1.611-3.892-1.852-5.2-1.852-3.506,0-7.042,1.709-7.042,5.526a4.419,4.419,0,0,0,2.008,3.8c.96.646,2.167.942,4.821,1.593,2.5.618,3.516.927,3.516,2.369,0,.592-.249,2.525-3.469,2.525-3.469,0-3.542-1.731-3.589-2.877l-.023-.509h-3.5v.532a5.888,5.888,0,0,0,1.108,3.783C120.338,71.2,123.091,71.478,124.6,71.478Z"/><polygon points="220.59 29.876 212.595 29.876 202.208 62.513 192.813 29.876 182.675 29.876 172.205 62.845 162.233 29.876 153.743 29.876 167.425 71.252 176.575 71.252 187.371 37.209 197.099 71.252 205.999 71.252 220.59 29.876"/><path d="M256.128,60.868l.329-19.782a12.175,12.175,0,0,0-1.4-6.347c-2.224-4.2-8.654-6.1-14.671-6.1-4.367,0-10.221.991-13.353,4.452-2.389,2.8-2.636,5.688-2.885,7.831H231.9c.083-1.65.5-7,8.327-7,2.223,0,5.6.659,7.169,2.719,1.484,1.811,1.484,4.037,1.484,9.149-2.39-.166-3.627-.249-5.6-.249-3.3,0-9.891.249-14.341,2.719a13.627,13.627,0,0,0-7.255,12.118c0,6.84,5.112,12.2,14.591,12.2,3.461,0,9.066-.659,12.776-7.5a22.33,22.33,0,0,0,.74,6.181h7.006A96.236,96.236,0,0,1,256.128,60.868ZM246.9,62.02a9.933,9.933,0,0,1-8.82,4.453c-6.925,0-8.573-4.536-8.573-7.172,0-8.407,11.788-8.407,14.92-8.407a35.066,35.066,0,0,1,4.45.244C248.709,56.908,248.629,59.218,246.9,62.02Z"/><rect x="268.089" y="11.822" width="7.748" height="59.43"/><path d="M315.571,51.47c-2.473-2.31-4.946-2.969-16.4-5.688-2.141-.576-5.851-1.484-5.851-5.278,0-5.931,7.252-5.931,8.407-5.931,2.8,0,8.243.493,7.994,6.756h7.914a13.126,13.126,0,0,0-1.071-6.014c-2.473-4.946-9.725-6.43-14.92-6.43-9.559,0-16.155,4.946-16.155,12.527,0,8.657,7.255,10.385,15.908,12.367,6.184,1.4,9.066,2.143,9.066,6.181a6.443,6.443,0,0,1-1.318,3.871c-1.647,2.06-4.037,2.642-7.252,2.642-7.5,0-9.149-4.37-9.069-7.5h-8.158c-.083,9.974,7.748,13.435,16.155,13.435,4.287,0,8.654-.576,12.281-2.8a12.539,12.539,0,0,0,5.6-10.467A10.263,10.263,0,0,0,315.571,51.47Z"/><path d="M354.9,71.252h7.914V45.372c0-6.02-.579-8-1.4-9.647-2.393-5.029-8.656-6.591-13.023-6.591-5.771,0-10.88,2.47-13.436,6.84V11.822h-7.831v59.43h7.831V49.326c0-2.553,0-6.429,1.318-8.739a10.7,10.7,0,0,1,9.725-5.521c8.9,0,8.9,8,8.9,11.707Z"/><path d="M103.805,70.634a22.62,22.62,0,0,0-.368,6.57.5.5,0,0,1-.729.485C88.847,70.143,84.639,62.926,84.6,62.834c0,0,4.168,10.669,19.536,18.743a.484.484,0,0,1,.234.28,23.5,23.5,0,0,0,2.025,4.625.644.644,0,0,1-.832.9,48.825,48.825,0,0,1-28.991-40.31V47.05c.039.107.068.212.109.32C78.049,51,81.987,55.35,88.383,60.3h0A114.629,114.629,0,0,0,103.5,69.959.619.619,0,0,1,103.805,70.634Z" fill="#0082ca"/><path d="M105.059,28.717a31.333,31.333,0,0,1-3.132,11.465l-.289.366c-3.838,3.4-8.44,6.208-10.236,4.92-1.54-1.106-2.209-5.346-2.8-9.087-.646-4.1-1.222-7.681-2.927-9,.706-.407,1.439-.8,2.232-1.182,3.339-1.589,4.224-4.622,5.345-8.462.269-.929.56-1.922.906-2.975.534-1.628,1.044-3.025,1.6-4.4A13.7,13.7,0,0,1,100,4.785,9.291,9.291,0,0,0,108.91,18.7c.215-.02.424-.061.635-.1A17.8,17.8,0,0,0,105.059,28.717Z" fill="#0082ca"/><path d="M94.349,48.316C91.358,51,88.477,53.583,87.438,56a.743.743,0,0,1-1.169.264c-4.2-3.628-6.916-6.886-7.918-9.531-2.714-7.181-1.2-13.028,4.466-17.454.449-.356,1.11-.791,1.565-.624,1.262.469,1.922,4.645,2.451,8,.708,4.484,1.377,8.721,3.526,10.262a3.827,3.827,0,0,0,2.661.633,9.85,9.85,0,0,0,3.391-1.11C95.732,47.073,95.039,47.7,94.349,48.316Z" fill="#54c8e8"/><path d="M122.605,8.4a18.716,18.716,0,0,1-6.686-3.7c-1.987-1.544-3.7-2.877-6.621-2.906a17.233,17.233,0,0,0-1.752.069c-.061.006-.156.026-.156.026a7.543,7.543,0,0,0,1.357,15.024,7.487,7.487,0,0,0,1.184-.224,11.9,11.9,0,0,0,3.854-1.921,32.1,32.1,0,0,1,8.557-4.249C123.9,10.026,123.793,8.84,122.605,8.4Zm-12.154-.194a2.145,2.145,0,1,1-2.332-1.94A2.149,2.149,0,0,1,110.451,8.205Z" fill="#54c8e8"/><path d="M72.045,33.6l-.9.313c-.873.469-1.741.9-2.592,1.275a42.426,42.426,0,0,1-9.392,2.9L64.87,24.882,53.886,37.937c-6.242.506-16.474-1.924-20.122-2.862L46.328,19.957,27.774,32.09c-6.1-1.7-11.2-6.493-14.606-10.549l15.408-8.813-19.708,2.9c-.319-.515-.489-.816-.5-.834L3.257,6.017a.523.523,0,0,1,.471-.785L55.3,7.155a5.819,5.819,0,0,1,1.475.249l27.379,8.381.007-.007,1.187.3c2.564.743,4.086,1.845,4.528,3.282a3.15,3.15,0,0,1,.13,1.108c-.015.29.016.508-.2.67-.172.13-.588-.042-.912-.15-17.43-5.775-37.987-1.515-38.888-1.323,0,0,19.821-1.851,36.635,3.589.555.18,1.133.311,1.143.619s-.2.489-.649.7a28.727,28.727,0,0,0-5.551,3.405c-.035.029-.069.046-.105.076l.006.007a16.669,16.669,0,0,0-5.177,6.685,2.9,2.9,0,0,0-.769-1.083A3.154,3.154,0,0,0,72.045,33.6Z" fill="#009c7c"/><path d="M72.045,33.6l-.9.313c-.873.469-1.741.9-2.592,1.275a42.426,42.426,0,0,1-9.392,2.9L64.87,24.882,53.886,37.937c-6.242.506-16.474-1.924-20.122-2.862L46.328,19.957,27.774,32.09c-6.1-1.7-11.2-6.493-14.606-10.549l15.408-8.813-19.708,2.9c-.319-.515-.489-.816-.5-.834L3.257,6.017a.523.523,0,0,1,.471-.785L55.3,7.155a5.819,5.819,0,0,1,1.475.249l27.379,8.381.007-.007,1.187.3c2.564.743,4.086,1.845,4.528,3.282a3.15,3.15,0,0,1,.13,1.108c-.015.29.016.508-.2.67-.172.13-.588-.042-.912-.15-17.43-5.775-37.987-1.515-38.888-1.323,0,0,19.821-1.851,36.635,3.589.555.18,1.133.311,1.143.619s-.2.489-.649.7a28.727,28.727,0,0,0-5.551,3.405c-.035.029-.069.046-.105.076l.006.007a16.669,16.669,0,0,0-5.177,6.685,2.9,2.9,0,0,0-.769-1.083A3.154,3.154,0,0,0,72.045,33.6Z" fill="#009c7c"/><path d="M103.805,70.634a22.62,22.62,0,0,0-.368,6.57.5.5,0,0,1-.729.485C88.847,70.143,84.639,62.926,84.6,62.834c0,0,4.168,10.669,19.536,18.743a.484.484,0,0,1,.234.28,23.5,23.5,0,0,0,2.025,4.625.644.644,0,0,1-.832.9,48.825,48.825,0,0,1-28.991-40.31V47.05c.039.107.068.212.109.32C78.049,51,81.987,55.35,88.383,60.3h0A114.629,114.629,0,0,0,103.5,69.959.619.619,0,0,1,103.805,70.634Z" fill="#0082ca"/><path d="M94.349,48.316C91.358,51,88.477,53.583,87.438,56a.743.743,0,0,1-1.169.264c-4.2-3.628-6.916-6.886-7.918-9.531-2.714-7.181-1.2-13.028,4.466-17.454.449-.356,1.11-.791,1.565-.624,1.262.469,1.922,4.645,2.451,8,.708,4.484,1.377,8.721,3.526,10.262a3.827,3.827,0,0,0,2.661.633,9.85,9.85,0,0,0,3.391-1.11C95.732,47.073,95.039,47.7,94.349,48.316Z" fill="#54c8e8"/><path d="M122.342,10.518a32.1,32.1,0,0,0-8.557,4.249,11.9,11.9,0,0,1-3.854,1.921,7.419,7.419,0,0,1-9.364-6.583,7.58,7.58,0,0,1,6.823-8.217s.095-.02.156-.026a17.233,17.233,0,0,1,1.752-.069c2.918.029,4.634,1.362,6.621,2.906a18.716,18.716,0,0,0,6.686,3.7C123.793,8.84,123.9,10.026,122.342,10.518Z" fill="#54c8e8"/><path d="M108.119,6.265a2.145,2.145,0,1,0,2.332,1.94A2.148,2.148,0,0,0,108.119,6.265Z"/></svg>