<svg viewBox="0 0 228 57" xmlns="http://www.w3.org/2000/svg" xmlns:xlink="http://www.w3.org/1999/xlink"><defs><path id="a" d="M0 56.4h227.3V0H0z"/></defs><g fill="none" fill-rule="evenodd"><path fill="#000" d="M88.8 45.2h2v-26h-2z"/><g transform="translate(0 .6)"><path d="M76.5 21h2c1 0 1.8 0 1.8 1.3 0 .7-.4 1-.6 1.1a3 3 0 01-1.2.2h-2V21zm0 4.5h1.6c1.6 0 1.8.4 2 1.8v.2c.1.8.2 2 .5 2.7v.2H83l-.1-.5c-.4-1.1-.5-2-.7-3.3 0-1-.4-1.6-1-2l.6-.4a3 3 0 00.8-2.2c0-1-.5-1.9-1.3-2.4-.9-.6-2-.6-2.7-.6h-4.1v11.4h2.1v-4.9zM78 44.8c2.8 0 4.6-1.4 4.6-3.6 0-1.1-.4-2-1.2-2.5-.6-.4-1-.5-3.2-1l-.4-.1c-1.3-.3-1.6-.6-1.6-1.3 0-.9.7-1.4 2-1.4 1.7 0 1.9.7 2 1.3v.3h2.1V36a3 3 0 00-.7-2c-1-1-2.5-1.1-3.3-1.1-2.2 0-4.4 1-4.4 3.4 0 1 .5 1.9 1.3 2.4.6.4 1.3.6 3 1 1.6.4 2.2.6 2.2 1.5 0 .4-.2 1.6-2.2 1.6-2.1 0-2.2-1-2.2-1.8v-.3h-2.2v.3c0 .5 0 1.5.7 2.4.9 1.1 2.6 1.3 3.5 1.3M138.2 18.8h-5l-6.5 20.4-6-20.4h-6.3L108 39.4l-6.3-20.6h-5.3l8.6 25.9h5.7l6.8-21.3 6 21.3h5.6zM154.7 38.9a6.2 6.2 0 01-5.6 2.8c-4.3 0-5.3-2.9-5.3-4.5 0-5.3 7.3-5.3 9.3-5.3 1.2 0 2 0 2.8.2-.1 3.6-.2 5-1.2 6.8m5.7-.7l.2-12.4c0-1.2 0-2.4-.8-4-1.4-2.6-5.5-3.8-9.2-3.8-2.8 0-6.4.6-8.4 2.8-1.5 1.7-1.6 3.5-1.8 4.9h4.9c0-1 .3-4.4 5.2-4.4 1.4 0 3.5.4 4.5 1.7.9 1.1.9 2.5.9 5.7l-3.5-.1c-2 0-6.2.1-9 1.7a8.5 8.5 0 00-4.5 7.6c0 4.2 3.2 7.6 9 7.6 2.3 0 5.8-.4 8-4.7 0 1.3.2 2.6.6 3.9h4.3c-.3-2.7-.4-6.1-.4-6.5" fill="#000"/><mask id="b" fill="#fff"><use xlink:href="#a"/></mask><path fill="#000" mask="url(#b)" d="M168 44.7h4.8V7.5h-4.9zM197.7 32.3c-1.6-1.5-3.1-1.9-10.3-3.6-1.4-.3-3.7-.9-3.7-3.3 0-3.7 4.6-3.7 5.3-3.7 1.7 0 5.2.3 5 4.2h5c0-1 0-2.3-.7-3.7-1.6-3.1-6.1-4-9.4-4-6 0-10 3-10 7.8 0 5.4 4.5 6.5 9.9 7.7 3.9 1 5.7 1.4 5.7 4a4 4 0 01-.9 2.3c-1 1.3-2.5 1.7-4.5 1.7-4.7 0-5.7-2.8-5.7-4.7h-5.1c0 6.2 4.9 8.4 10.1 8.4 2.7 0 5.4-.4 7.7-1.8 2-1.1 3.5-3.6 3.5-6.5 0-1.7-.5-3.5-2-4.8M222.3 44.7h5V28.5c0-3.8-.4-5-1-6-1.4-3.2-5.3-4.2-8-4.2-3.7 0-6.9 1.5-8.5 4.3V7.5h-4.9v37.2h4.9V30.9c0-1.6 0-4 .8-5.4a6.7 6.7 0 016.1-3.5c5.6 0 5.6 5 5.6 7.3v15.4zM67.7 4a1.3 1.3 0 10.3 2.7 1.3 1.3 0 00-.3-2.7"/><path d="M76.6 6.6c-2.2.8-4 1.7-5.3 2.7a7.4 7.4 0 01-3.2 1.3 4.7 4.7 0 11-.7-9.4h1c1.9 0 3 .8 4.2 1.8 1 .8 2.3 1.8 4.2 2.3.7.3.8 1-.2 1.3M65.8 18s-.2 4-2 7.2l-.1.2c-2.4 2.2-5.3 4-6.4 3.1-1-.7-1.4-3.3-1.8-5.7-.4-2.5-.8-4.8-1.8-5.6l1.4-.7c2-1 2.6-3 3.3-5.3A55.1 55.1 0 0160 6.5 8.6 8.6 0 0162.6 3c-.5 1-.8 2.2-.7 3.5a5.8 5.8 0 006.3 5.3l.4-.1a11.2 11.2 0 00-2.8 6.3m-6.7 12.3c-1.9 1.7-3.7 3.3-4.3 4.8-.2.3-.5.4-.8.2a17.2 17.2 0 01-5-6c-1.6-4.5-.7-8.1 2.9-11 .3-.1.7-.4 1-.3.7.3 1.2 3 1.5 5 .4 2.8.9 5.5 2.2 6.4.5.4 1 .5 1.7.4.6 0 1.4-.3 2-.7l-1.2 1.2M64.8 44c.2 0 .3.2.2.4-.3 1.5-.3 2.8-.2 4.1 0 .3-.2.4-.5.3A29.5 29.5 0 0153 39.4a25.9 25.9 0 0012.4 12c.3 1 .8 2 1.2 2.8.2.4-.1.7-.5.6A30.6 30.6 0 0148 29.5v.2a22 22 0 007.4 8.1c3.7 3 7.9 5.2 9.4 6M47.3 21.2c-.5-.4-1.3-.4-2.2 0l-.5.2a23.8 23.8 0 01-7.5 2.6l3.5-8.3-6.8 8.2c-4 .3-10.4-1.2-12.7-1.8l8-9.5-11.7 7.6c-3.8-1-7-4-9.2-6.6L18 8 5.6 9.8l-.4-.5L2 3.8c0-.2 0-.5.3-.5l32.3 1.2c.4 0 .7 0 1 .2l17.1 5.2.8.2c1.6.5 2.5 1.2 2.8 2V13.4l-.6-.1c-11-3.6-23.8-1-24.4-.8 0 0 12.4-1.2 23 2.2.3.1.7.2.7.4s-.1.3-.4.4a18 18 0 00-3.5 2.2 10.4 10.4 0 00-3.3 4.2l-.5-.7M103 5l-1-.2c-2.6-.4-10.1-1.6-23-.4l-1.6-.1c-1.8-.5-2.9-1.3-4-2.2-1.3-1-2.6-2-4.8-2a9.8 9.8 0 00-9.6 6l-.8 2.4s-.3 1.7-1.3 1.4l-21-6.3a3 3 0 00-.8-.2L.3 2.1c-.2 0-.4.3-.3.5L4.3 10l.5.9.3.3 7-1.1-5.6 3.2.5.5c2.2 2.9 5.9 6.5 10.4 7.6h.2l5.8-3.7-4.2 5 .8.3c.4 0 9.2 2.5 14 2h.3l2.3-2.7-1.4 3h1a26 26 0 008.8-2.9l.5-.2c.4-.1.9-.3 1.1 0 .6.4 0 2.6.1 3.9l.1 3.6c1.1 12 9 22.3 20 26.7h.3c.9.2 1.6-.6 1.3-1.5a13.3 13.3 0 01-2.2-10.6 1 1 0 00-.5-1.2l-.4-.1c-1.5-.9-5.6-3.1-9.2-6l-.4-.2c-.5-1.4 1.9-3.5 4.1-5.6 2-1.8 4.2-3.7 5.2-5.6 1.7-3.5 2-7.2 2-7.4 0-.3.4-7.9 11.5-10.8A68 68 0 01102.7 6c.4 0 .6-.3.6-.6s-.2-.5-.4-.5" fill="#000" mask="url(#b)"/></g></g></svg>