<?xml version="1.0" encoding="UTF-8"?>
<svg width="18px" height="18px" viewBox="0 0 18 18" version="1.1" xmlns="http://www.w3.org/2000/svg" xmlns:xlink="http://www.w3.org/1999/xlink">
    <!-- Generator: Sketch 60.1 (88133) - https://sketch.com -->
    <title>social-icon-twit</title>
    <desc>Created with Sketch.</desc>
    <g id="Symbols" stroke="none" stroke-width="1" fill="none" fill-rule="evenodd">
        <g id="Footer-/-White" transform="translate(-1352.000000, -20.000000)">
            <rect id="Rectangle" stroke-opacity="0.204682037" stroke="#090A0A" x="-0.5" y="-0.5" width="1441" height="116"></rect>
            <g id="_Icons-/-16px---Social-/-Black-/-Twitter-2" transform="translate(1353.000000, 23.000000)" fill="#090A0A">
                <path d="M5.0260104,13.010004 C11.0636255,13.010004 14.3673469,8.00320128 14.3673469,3.66866747 C14.3673469,3.52781112 14.3673469,3.38695478 14.3609444,3.24609844 C15.0012005,2.78511405 15.5582233,2.20248099 16,1.54301721 C15.4109644,1.80552221 14.7771108,1.97839136 14.1112445,2.06162465 C14.789916,1.65826331 15.3085234,1.01160464 15.5582233,0.243297319 C14.9243697,0.621048419 14.220088,0.889955982 13.4709884,1.03721489 C12.8691477,0.396958784 12.017607,0 11.0764306,0 C9.2645058,0 7.79191677,1.47258904 7.79191677,3.28451381 C7.79191677,3.54061625 7.82392957,3.79031613 7.87515006,4.03361345 C5.14765906,3.89915966 2.727491,2.58663465 1.10764306,0.601840736 C0.825930372,1.08843537 0.665866347,1.65186074 0.665866347,2.25370148 C0.665866347,3.39335734 1.2484994,4.39855942 2.12565026,4.98759504 C1.58783513,4.96838735 1.08203281,4.82112845 0.640256102,4.57783113 C0.640256102,4.59063625 0.640256102,4.60344138 0.640256102,4.62264906 C0.640256102,6.21048419 1.7735094,7.54221689 3.27170868,7.84313725 C2.99639856,7.91996799 2.70828331,7.95838335 2.40736295,7.95838335 C2.19607843,7.95838335 1.99119648,7.93917567 1.79271709,7.9007603 C2.20888355,9.20688275 3.42537015,10.1544618 4.85954382,10.180072 C3.73269308,11.0636255 2.31772709,11.5886355 0.781112445,11.5886355 C0.518607443,11.5886355 0.256102441,11.5758303 0,11.5438175 C1.44697879,12.4657863 3.17567027,13.010004 5.0260104,13.010004" id="Icon"></path>
            </g>
        </g>
    </g>
</svg>