<?xml version="1.0" encoding="UTF-8"?>
<svg width="18px" height="18px" viewBox="0 0 18 18" version="1.1" xmlns="http://www.w3.org/2000/svg" xmlns:xlink="http://www.w3.org/1999/xlink">
    <!-- Generator: Sketch 60.1 (88133) - https://sketch.com -->
    <title>social-icon-linkedin</title>
    <desc>Created with Sketch.</desc>
    <g id="Symbols" stroke="none" stroke-width="1" fill="none" fill-rule="evenodd">
        <g id="Footer-/-White" transform="translate(-1290.000000, -20.000000)">
            <rect id="Rectangle" stroke-opacity="0.204682037" stroke="#090A0A" x="-0.5" y="-0.5" width="1441" height="116"></rect>
            <g id="_Icons-/-16px---Social-/-Black-/-Linkedin" transform="translate(1291.000000, 21.000000)" fill="#090A0A">
                <path d="M15.5127137,15.5117037 L12.3492787,15.5117037 L12.3492787,10.56 C12.3492787,9.37955556 12.3279441,7.86133333 10.7041502,7.86133333 C9.0590218,7.86133333 8.80774858,9.14844444 8.80774858,10.4758519 L8.80774858,15.5117037 L5.64668408,15.5117037 L5.64668408,5.33096296 L8.67855622,5.33096296 L8.67855622,6.72237037 L8.7224105,6.72237037 C9.14554512,5.92237037 10.1767135,5.07851852 11.7163546,5.07851852 C14.9212734,5.07851852 15.5127137,7.18577778 15.5127137,9.9282963 L15.5127137,15.5117037 Z M2.07907847,3.94074074 C1.06213308,3.94074074 0.241939367,3.11822222 0.241939367,2.10488889 C0.241939367,1.09274074 1.06213308,0.270222222 2.07907847,0.270222222 C3.0900976,0.270222222 3.91266181,1.09274074 3.91266181,2.10488889 C3.91266181,3.11822222 3.0900976,3.94074074 2.07907847,3.94074074 Z M0.493212586,15.5117037 L3.6613886,15.5117037 L3.6613886,5.33096296 L0.493212586,5.33096296 L0.493212586,15.5117037 Z" id="Icon"></path>
            </g>
        </g>
    </g>
</svg>